<svg width="947" height="252" viewBox="0 0 947 252" fill="none" xmlns="http://www.w3.org/2000/svg">
<path d="M150.2 47.559C134.787 37.9325 117.872 51.5349 111.342 59.5394C134.485 76.3108 150.748 89.8695 155.986 94.5525C161.015 93.9319 165.014 85.7904 166.385 81.7973C171.353 62.0036 157.665 50.7244 150.2 47.559Z" fill="black" stroke="black" stroke-width="5"/>
<path d="M21.7999 47.559C37.2129 37.9325 54.1276 51.5349 60.6583 59.5395C37.5148 76.3108 21.2521 89.8696 16.0138 94.5525C10.9855 93.9319 6.98588 85.7904 5.61462 81.7973C0.647094 62.0036 14.335 50.7244 21.7999 47.559Z" fill="black" stroke="black" stroke-width="5"/>
<path d="M170.223 125.65C170.223 162.839 132.768 193.5 85.8615 193.5C38.9548 193.5 1.5 162.839 1.5 125.65C1.5 88.4614 38.9548 57.8007 85.8615 57.8007C132.768 57.8007 170.223 88.4614 170.223 125.65Z" fill="#E9994D" stroke="#794514" stroke-width="3"/>
<path d="M59.6323 191.04C168.721 175.486 173.076 120.127 158.213 89.0242C180.069 120.487 167.32 150.568 158.213 161.676C125.55 198.903 78.8829 196.763 59.6323 191.04Z" fill="#CD8A49"/>
<path d="M98.4705 125.65C93.667 123.249 81.8986 120.186 73.2524 127.151C73.7528 130.254 76.855 136.578 85.261 137.059C90.2646 136.858 99.9115 134.297 98.4705 125.65Z" fill="black"/>
<path d="M89.464 125.35C87.1624 124.75 81.4783 124.089 77.1552 126.251C79.2567 127.151 84.6606 128.232 89.464 125.35Z" fill="white"/>
<path d="M109.947 93.7914C115.05 92.8907 127.299 93.7914 135.465 104.599C139.068 109.803 145.972 122.252 144.772 130.418C144.772 135.321 143.15 146.089 136.666 149.932C133.764 152.133 125.918 154.735 117.752 147.53C116.151 146.129 112.949 141.946 112.949 136.422C111.748 131.919 107.605 120.811 100.64 112.405C99.0389 107.601 98.6586 97.1538 109.947 93.7914Z" fill="#A8682B"/>
<ellipse rx="8.59257" ry="13.3243" transform="matrix(-0.970131 0.242583 0.242583 0.970131 121.795 119.009)" fill="black"/>
<circle r="4.20301" transform="matrix(-1 0 0 1 121.355 113.005)" fill="white"/>
<circle r="2.40172" transform="matrix(-1 0 0 1 124.957 124.413)" fill="#4B4D93"/>
<path d="M61.3823 94.1278C56.2786 93.2272 44.0299 94.1278 35.864 104.936C32.2615 110.139 25.3565 122.588 26.5574 130.754C26.5574 135.658 28.1785 146.425 34.6632 150.268C37.5652 152.47 45.4109 155.071 53.5767 147.866C55.1779 146.465 58.3801 142.282 58.3801 136.758C59.581 132.255 63.724 121.147 70.689 112.741C72.2901 107.938 72.6704 97.4902 61.3823 94.1278Z" fill="#A8682B"/>
<ellipse cx="49.5337" cy="119.346" rx="8.59257" ry="13.3243" transform="rotate(14.0391 49.5337 119.346)" fill="black"/>
<circle cx="49.9741" cy="113.342" r="4.20301" fill="white"/>
<circle cx="46.3716" cy="124.75" r="2.40172" fill="#4B4D93"/>
<path d="M73.5526 149.367C80.5176 149.608 84.0602 142.663 84.9608 139.16C86.1617 143.063 90.2446 150.568 96.9694 149.367C98.4409 149.662 100.903 149.464 102.974 147.688C104.895 159.314 100.772 165.06 98.4705 166.48C93.667 170.082 86.662 169.582 83.76 168.881C73.1924 165.519 72.5519 154.471 73.5526 149.367Z" fill="#FFAEAE"/>
<path d="M73.5526 149.367C80.5176 149.608 84.0602 142.663 84.9608 139.16C86.1617 143.063 90.2446 150.568 96.9694 149.367C98.4409 149.662 100.903 149.464 102.974 147.688M73.5526 149.367C71.7514 149.768 67.7285 148.707 66.0473 141.262M73.5526 149.367C72.5519 154.471 73.1924 165.519 83.76 168.881C86.662 169.582 93.667 170.082 98.4705 166.48C100.772 165.06 104.895 159.314 102.974 147.688M106.276 141.262C105.683 144.427 104.424 146.444 102.974 147.688" stroke="black" stroke-width="5"/>
<circle cx="43.8314" cy="76.1149" r="1.20086" fill="#F1C290"/>
<circle cx="28.2202" cy="79.7175" r="1.20086" fill="#F1C290"/>
<circle cx="46.8335" cy="68.3093" r="1.20086" fill="#F1C290"/>
<circle cx="37.2266" cy="73.1128" r="1.20086" fill="#F1C290"/>
<circle cx="55.2395" cy="79.7175" r="1.20086" fill="#F1C290"/>
<circle cx="55.2395" cy="65.9076" r="1.20086" fill="#F1C290"/>
<circle cx="21.015" cy="101.333" r="1.20086" fill="#F1C290"/>
<circle cx="21.015" cy="88.7239" r="1.20086" fill="#F1C290"/>
<circle cx="52.8378" cy="73.7132" r="1.20086" fill="#F1C290"/>
<circle cx="30.6219" cy="91.7261" r="1.20086" fill="#F1C290"/>
<circle cx="45.0322" cy="86.9227" r="1.20086" fill="#F1C290"/>
<circle cx="35.4253" cy="82.1192" r="1.20086" fill="#F1C290"/>
<path d="M81.3582 55.0999V37.087L92.4662 42.1906C87.4226 43.1513 86.3618 51.1971 86.4619 55.0999L108.077 59.0027L90.6649 60.804L96.6692 71.9119L84.3604 64.4065L74.1531 71.9119L78.3561 60.804L63.6455 59.0027L81.3582 55.0999Z" fill="#7EAF67" stroke="#407646" stroke-width="2"/>
<path d="M235.72 116C240.2 116 243.613 114.987 245.96 112.96C248.413 110.827 249.64 107.627 249.64 103.36C249.64 99.3067 248.36 96.2133 245.8 94.08C243.347 91.84 239.72 90.72 234.92 90.72C233.213 90.72 231.773 90.7733 230.6 90.88C229.533 90.88 228.413 90.9867 227.24 91.2V116H235.72ZM227.4 167.36C226.227 167.68 224.36 168 221.8 168.32C219.347 168.64 216.893 168.8 214.44 168.8C211.987 168.8 209.8 168.587 207.88 168.16C206.067 167.84 204.52 167.2 203.24 166.24C201.96 165.28 201 163.947 200.36 162.24C199.72 160.533 199.4 158.293 199.4 155.52V80.16C199.4 77.92 199.987 76.2133 201.16 75.04C202.44 73.76 204.147 72.7467 206.28 72C209.907 70.72 214.013 69.8133 218.6 69.28C223.293 68.64 227.987 68.32 232.68 68.32C247.4 68.32 258.653 71.4667 266.44 77.76C274.227 84.0533 278.12 92.5867 278.12 103.36C278.12 108.587 277.267 113.333 275.56 117.6C273.96 121.76 271.507 125.387 268.2 128.48C265 131.467 260.893 133.813 255.88 135.52C250.973 137.12 245.267 137.92 238.76 137.92H227.4V167.36ZM308.165 73.92C309.978 72.8533 312.698 71.84 316.325 70.88C320.058 69.92 323.792 69.44 327.525 69.44C332.858 69.44 337.552 70.24 341.605 71.84C345.765 73.3333 348.432 75.7333 349.605 79.04C351.525 84.5867 353.605 91.04 355.845 98.4C358.085 105.76 360.325 113.387 362.565 121.28C364.805 129.067 366.992 136.8 369.125 144.48C371.258 152.053 373.125 158.773 374.725 164.64C373.445 166.133 371.525 167.307 368.965 168.16C366.405 169.12 363.365 169.6 359.845 169.6C357.285 169.6 355.098 169.387 353.285 168.96C351.578 168.533 350.138 167.893 348.965 167.04C347.898 166.187 346.992 165.067 346.245 163.68C345.605 162.293 345.018 160.693 344.485 158.88L341.605 147.84H312.645C311.792 151.04 310.938 154.347 310.085 157.76C309.232 161.173 308.378 164.48 307.525 167.68C306.032 168.213 304.432 168.64 302.725 168.96C301.125 169.387 299.152 169.6 296.805 169.6C291.365 169.6 287.312 168.693 284.645 166.88C282.085 164.96 280.805 162.347 280.805 159.04C280.805 157.547 281.018 156.053 281.445 154.56C281.872 153.067 282.352 151.307 282.885 149.28C283.632 146.4 284.645 142.827 285.925 138.56C287.312 134.293 288.805 129.707 290.405 124.8C292.005 119.787 293.712 114.667 295.525 109.44C297.338 104.213 299.045 99.3067 300.645 94.72C302.245 90.0267 303.685 85.8667 304.965 82.24C306.352 78.6133 307.418 75.84 308.165 73.92ZM327.365 94.56C325.872 99.04 324.165 104.053 322.245 109.6C320.432 115.04 318.778 120.587 317.285 126.24H337.125C335.632 120.48 334.085 114.88 332.485 109.44C330.992 103.893 329.605 98.9333 328.325 94.56H327.365ZM475.678 164.64C474.184 166.133 471.998 167.253 469.118 168C466.344 168.853 462.984 169.28 459.038 169.28C455.091 169.28 451.358 168.693 447.838 167.52C444.318 166.347 441.438 163.52 439.198 159.04L423.358 126.72C421.758 123.413 420.318 120.32 419.038 117.44C417.758 114.453 416.371 111.04 414.878 107.2L413.918 107.36C414.344 113.12 414.558 118.987 414.558 124.96C414.664 130.933 414.718 136.8 414.718 142.56V167.36C413.544 167.68 411.731 168 409.278 168.32C406.931 168.64 404.584 168.8 402.238 168.8C399.891 168.8 397.811 168.64 395.998 168.32C394.184 168 392.691 167.36 391.518 166.4C390.344 165.44 389.438 164.16 388.798 162.56C388.158 160.853 387.838 158.667 387.838 156V76C389.331 73.8667 391.624 72.2667 394.718 71.2C397.811 70.1333 401.118 69.6 404.638 69.6C408.584 69.6 412.318 70.24 415.838 71.52C419.464 72.6933 422.344 75.4667 424.477 79.84L440.478 112.16C442.078 115.467 443.518 118.613 444.798 121.6C446.078 124.48 447.464 127.84 448.958 131.68L449.758 131.52C449.331 125.76 449.064 120 448.958 114.24C448.851 108.48 448.798 102.72 448.798 96.96V71.04C449.971 70.72 451.731 70.4 454.078 70.08C456.531 69.76 458.931 69.6 461.278 69.6C465.971 69.6 469.544 70.4533 471.998 72.16C474.451 73.76 475.678 77.1733 475.678 82.4V164.64ZM524.271 147.2C525.445 147.413 526.885 147.627 528.591 147.84C530.298 147.947 531.898 148 533.391 148C537.018 148 540.325 147.467 543.311 146.4C546.405 145.333 549.018 143.68 551.151 141.44C553.391 139.2 555.098 136.32 556.271 132.8C557.551 129.173 558.191 124.853 558.191 119.84C558.191 110.24 555.951 103.04 551.471 98.24C546.991 93.3333 541.018 90.88 533.551 90.88C532.058 90.88 530.511 90.9333 528.911 91.04C527.418 91.1467 525.871 91.3067 524.271 91.52V147.2ZM533.231 170.56C531.418 170.56 529.338 170.507 526.991 170.4C524.645 170.293 522.191 170.08 519.631 169.76C517.178 169.44 514.671 169.013 512.111 168.48C509.658 168.053 507.365 167.413 505.231 166.56C499.365 164.32 496.431 160.427 496.431 154.88V80.16C496.431 77.92 497.018 76.2133 498.191 75.04C499.471 73.76 501.178 72.7467 503.311 72C507.898 70.5067 512.751 69.5467 517.871 69.12C522.991 68.5867 527.578 68.32 531.631 68.32C539.951 68.32 547.471 69.3333 554.191 71.36C561.018 73.3867 566.831 76.5333 571.631 80.8C576.538 84.96 580.325 90.24 582.991 96.64C585.658 103.04 586.991 110.613 586.991 119.36C586.991 127.893 585.711 135.36 583.151 141.76C580.591 148.053 576.911 153.387 572.111 157.76C567.418 162.027 561.765 165.227 555.151 167.36C548.538 169.493 541.231 170.56 533.231 170.56ZM622.54 73.92C624.353 72.8533 627.073 71.84 630.7 70.88C634.433 69.92 638.167 69.44 641.9 69.44C647.233 69.44 651.927 70.24 655.98 71.84C660.14 73.3333 662.807 75.7333 663.98 79.04C665.9 84.5867 667.98 91.04 670.22 98.4C672.46 105.76 674.7 113.387 676.94 121.28C679.18 129.067 681.367 136.8 683.5 144.48C685.633 152.053 687.5 158.773 689.1 164.64C687.82 166.133 685.9 167.307 683.34 168.16C680.78 169.12 677.74 169.6 674.22 169.6C671.66 169.6 669.473 169.387 667.66 168.96C665.953 168.533 664.513 167.893 663.34 167.04C662.273 166.187 661.367 165.067 660.62 163.68C659.98 162.293 659.393 160.693 658.86 158.88L655.98 147.84H627.02C626.167 151.04 625.313 154.347 624.46 157.76C623.607 161.173 622.753 164.48 621.9 167.68C620.407 168.213 618.807 168.64 617.1 168.96C615.5 169.387 613.527 169.6 611.18 169.6C605.74 169.6 601.687 168.693 599.02 166.88C596.46 164.96 595.18 162.347 595.18 159.04C595.18 157.547 595.393 156.053 595.82 154.56C596.247 153.067 596.727 151.307 597.26 149.28C598.007 146.4 599.02 142.827 600.3 138.56C601.687 134.293 603.18 129.707 604.78 124.8C606.38 119.787 608.087 114.667 609.9 109.44C611.713 104.213 613.42 99.3067 615.02 94.72C616.62 90.0267 618.06 85.8667 619.34 82.24C620.727 78.6133 621.793 75.84 622.54 73.92ZM641.74 94.56C640.247 99.04 638.54 104.053 636.62 109.6C634.807 115.04 633.153 120.587 631.66 126.24H651.5C650.007 120.48 648.46 114.88 646.86 109.44C645.367 103.893 643.98 98.9333 642.7 94.56H641.74ZM730.053 136.64V167.36C728.879 167.68 727.013 168 724.453 168.32C721.999 168.64 719.546 168.8 717.093 168.8C714.639 168.8 712.453 168.587 710.533 168.16C708.719 167.84 707.173 167.2 705.893 166.24C704.719 165.28 703.813 163.947 703.173 162.24C702.533 160.533 702.213 158.293 702.213 155.52V80.16C702.213 77.92 702.799 76.2133 703.973 75.04C705.253 73.76 706.959 72.7467 709.093 72C712.719 70.72 716.933 69.8133 721.733 69.28C726.533 68.64 731.653 68.32 737.093 68.32C751.813 68.32 762.906 71.4133 770.373 77.6C777.839 83.7867 781.573 92.16 781.573 102.72C781.573 109.333 779.866 114.987 776.453 119.68C773.039 124.373 768.986 128 764.293 130.56C768.133 135.787 771.919 140.693 775.653 145.28C779.386 149.867 782.319 154.027 784.453 157.76C783.386 161.493 781.413 164.373 778.533 166.4C775.759 168.32 772.613 169.28 769.093 169.28C766.746 169.28 764.719 169.013 763.013 168.48C761.306 167.947 759.813 167.2 758.533 166.24C757.253 165.28 756.079 164.107 755.013 162.72C753.946 161.333 752.933 159.84 751.973 158.24L738.533 136.64H730.053ZM740.133 115.36C744.186 115.36 747.386 114.347 749.733 112.32C752.079 110.187 753.253 107.093 753.253 103.04C753.253 98.9867 751.919 95.9467 749.253 93.92C746.693 91.7867 742.586 90.72 736.933 90.72C735.333 90.72 734.053 90.7733 733.093 90.88C732.133 90.9867 731.066 91.1467 729.893 91.36V115.36H740.133ZM827.713 167.36C826.539 167.68 824.673 168 822.113 168.32C819.659 168.64 817.206 168.8 814.753 168.8C812.299 168.8 810.113 168.587 808.193 168.16C806.379 167.84 804.833 167.2 803.553 166.24C802.273 165.28 801.313 163.947 800.673 162.24C800.033 160.533 799.713 158.293 799.713 155.52V71.04C800.886 70.8267 802.753 70.56 805.313 70.24C807.873 69.8133 810.326 69.6 812.673 69.6C815.126 69.6 817.259 69.8133 819.073 70.24C820.993 70.56 822.593 71.2 823.873 72.16C825.153 73.12 826.113 74.4533 826.753 76.16C827.393 77.8667 827.713 80.1067 827.713 82.88V167.36ZM936.303 164.64C934.809 166.133 932.623 167.253 929.743 168C926.969 168.853 923.609 169.28 919.663 169.28C915.716 169.28 911.983 168.693 908.463 167.52C904.943 166.347 902.063 163.52 899.823 159.04L883.983 126.72C882.383 123.413 880.943 120.32 879.663 117.44C878.383 114.453 876.996 111.04 875.503 107.2L874.543 107.36C874.969 113.12 875.183 118.987 875.183 124.96C875.289 130.933 875.343 136.8 875.343 142.56V167.36C874.169 167.68 872.356 168 869.903 168.32C867.556 168.64 865.209 168.8 862.863 168.8C860.516 168.8 858.436 168.64 856.623 168.32C854.809 168 853.316 167.36 852.143 166.4C850.969 165.44 850.063 164.16 849.423 162.56C848.783 160.853 848.463 158.667 848.463 156V76C849.956 73.8667 852.249 72.2667 855.343 71.2C858.436 70.1333 861.743 69.6 865.263 69.6C869.209 69.6 872.943 70.24 876.463 71.52C880.089 72.6933 882.969 75.4667 885.102 79.84L901.103 112.16C902.703 115.467 904.143 118.613 905.423 121.6C906.703 124.48 908.089 127.84 909.583 131.68L910.383 131.52C909.956 125.76 909.689 120 909.583 114.24C909.476 108.48 909.423 102.72 909.423 96.96V71.04C910.596 70.72 912.356 70.4 914.703 70.08C917.156 69.76 919.556 69.6 921.903 69.6C926.596 69.6 930.169 70.4533 932.623 72.16C935.076 73.76 936.303 77.1733 936.303 82.4V164.64Z" fill="#F7C99D"/>
<path d="M245.96 112.96L247.921 115.23L247.929 115.224L245.96 112.96ZM245.8 94.08L243.777 96.2955L243.827 96.3412L243.879 96.3847L245.8 94.08ZM230.6 90.88V93.88H230.736L230.872 93.8677L230.6 90.88ZM227.24 91.2L226.703 88.2484L224.24 88.6963V91.2H227.24ZM227.24 116H224.24V119H227.24V116ZM227.4 167.36L228.189 170.254L230.4 169.651V167.36H227.4ZM221.8 168.32L221.428 165.343L221.42 165.344L221.412 165.345L221.8 168.32ZM207.88 168.16L208.531 165.231L208.466 165.217L208.401 165.206L207.88 168.16ZM203.24 166.24L201.44 168.64L201.44 168.64L203.24 166.24ZM200.36 162.24L197.551 163.293L197.551 163.293L200.36 162.24ZM201.16 75.04L203.281 77.1613L203.281 77.1613L201.16 75.04ZM206.28 72L207.271 74.8316L207.278 74.829L206.28 72ZM218.6 69.28L218.947 72.2599L218.976 72.2565L219.005 72.2525L218.6 69.28ZM266.44 77.76L264.554 80.0932L266.44 77.76ZM275.56 117.6L272.775 116.486L272.767 116.504L272.76 116.523L275.56 117.6ZM268.2 128.48L270.247 130.673L270.249 130.671L268.2 128.48ZM255.88 135.52L256.81 138.372L256.828 138.366L256.847 138.36L255.88 135.52ZM227.4 137.92V134.92H224.4V137.92H227.4ZM235.72 119C240.606 119 244.831 117.899 247.921 115.23L243.999 110.69C242.396 112.074 239.794 113 235.72 113V119ZM247.929 115.224C251.227 112.355 252.64 108.207 252.64 103.36H246.64C246.64 107.047 245.6 109.298 243.991 110.696L247.929 115.224ZM252.64 103.36C252.64 98.6279 251.112 94.6015 247.721 91.7753L243.879 96.3847C245.608 97.8252 246.64 99.9854 246.64 103.36H252.64ZM247.823 91.8645C244.614 88.9347 240.139 87.72 234.92 87.72V93.72C239.301 93.72 242.079 94.7453 243.777 96.2955L247.823 91.8645ZM234.92 87.72C233.159 87.72 231.622 87.7747 230.328 87.8923L230.872 93.8677C231.925 93.772 233.268 93.72 234.92 93.72V87.72ZM230.6 87.88C229.334 87.88 228.033 88.0066 226.703 88.2484L227.777 94.1516C228.793 93.9668 229.733 93.88 230.6 93.88V87.88ZM224.24 91.2V116H230.24V91.2H224.24ZM227.24 119H235.72V113H227.24V119ZM226.611 164.466C225.655 164.726 223.967 165.026 221.428 165.343L222.172 171.297C224.753 170.974 226.798 170.634 228.189 170.254L226.611 164.466ZM221.412 165.345C219.086 165.649 216.762 165.8 214.44 165.8V171.8C217.024 171.8 219.607 171.631 222.188 171.295L221.412 165.345ZM214.44 165.8C212.154 165.8 210.192 165.601 208.531 165.231L207.229 171.089C209.408 171.573 211.819 171.8 214.44 171.8V165.8ZM208.401 165.206C206.982 164.955 205.89 164.478 205.04 163.84L201.44 168.64C203.15 169.922 205.152 170.725 207.359 171.114L208.401 165.206ZM205.04 163.84C204.279 163.269 203.637 162.434 203.169 161.187L197.551 163.293C198.363 165.459 199.641 167.291 201.44 168.64L205.04 163.84ZM203.169 161.187C202.703 159.945 202.4 158.102 202.4 155.52H196.4C196.4 158.485 196.737 161.122 197.551 163.293L203.169 161.187ZM202.4 155.52V80.16H196.4V155.52H202.4ZM202.4 80.16C202.4 78.4293 202.845 77.5976 203.281 77.1613L199.039 72.9187C197.128 74.8291 196.4 77.4107 196.4 80.16H202.4ZM203.281 77.1613C204.174 76.2691 205.46 75.4655 207.271 74.8316L205.289 69.1684C202.833 70.0279 200.706 71.2509 199.039 72.9187L203.281 77.1613ZM207.278 74.829C210.657 73.6365 214.539 72.7724 218.947 72.2599L218.253 66.3001C213.487 66.8543 209.156 67.8035 205.282 69.171L207.278 74.829ZM219.005 72.2525C223.566 71.6306 228.123 71.32 232.68 71.32V65.32C227.85 65.32 223.021 65.6494 218.195 66.3075L219.005 72.2525ZM232.68 71.32C247.026 71.32 257.502 74.3934 264.554 80.0932L268.326 75.4268C259.805 68.5399 247.774 65.32 232.68 65.32V71.32ZM264.554 80.0932C271.577 85.7691 275.12 93.4138 275.12 103.36H281.12C281.12 91.7595 276.876 82.3375 268.326 75.4268L264.554 80.0932ZM275.12 103.36C275.12 108.257 274.321 112.619 272.775 116.486L278.345 118.714C280.212 114.048 281.12 108.916 281.12 103.36H275.12ZM272.76 116.523C271.325 120.253 269.131 123.501 266.151 126.289L270.249 130.671C273.882 127.273 276.595 123.267 278.36 118.677L272.76 116.523ZM266.153 126.287C263.321 128.93 259.607 131.082 254.913 132.68L256.847 138.36C262.179 136.545 266.679 134.004 270.247 130.673L266.153 126.287ZM254.95 132.668C250.41 134.148 245.029 134.92 238.76 134.92V140.92C245.504 140.92 251.537 140.092 256.81 138.372L254.95 132.668ZM238.76 134.92H227.4V140.92H238.76V134.92ZM224.4 137.92V167.36H230.4V137.92H224.4ZM308.165 73.92L306.644 71.3342L305.746 71.8622L305.369 72.8327L308.165 73.92ZM316.325 70.88L315.578 67.9745L315.568 67.9772L315.557 67.9799L316.325 70.88ZM341.605 71.84L340.504 74.6305L340.547 74.6477L340.591 74.6636L341.605 71.84ZM349.605 79.04L352.44 78.0587L352.436 78.0477L352.432 78.0368L349.605 79.04ZM355.845 98.4L358.715 97.5265L358.715 97.5265L355.845 98.4ZM362.565 121.28L359.679 122.099L359.682 122.109L362.565 121.28ZM369.125 144.48L366.234 145.283L366.237 145.293L369.125 144.48ZM374.725 164.64L377.003 166.592L378.038 165.385L377.619 163.851L374.725 164.64ZM368.965 168.16L368.016 165.314L367.964 165.332L367.912 165.351L368.965 168.16ZM353.285 168.96L352.557 171.87L352.578 171.875L352.598 171.88L353.285 168.96ZM348.965 167.04L347.091 169.383L347.145 169.426L347.2 169.466L348.965 167.04ZM346.245 163.68L343.521 164.937L343.56 165.021L343.604 165.102L346.245 163.68ZM344.485 158.88L341.582 159.637L341.594 159.682L341.607 159.726L344.485 158.88ZM341.605 147.84L344.508 147.083L343.923 144.84H341.605V147.84ZM312.645 147.84V144.84H310.34L309.746 147.067L312.645 147.84ZM310.085 157.76L307.175 157.032L307.175 157.032L310.085 157.76ZM307.525 167.68L308.534 170.505L310.018 169.975L310.424 168.453L307.525 167.68ZM302.725 168.96L302.172 166.011L302.061 166.032L301.952 166.061L302.725 168.96ZM284.645 166.88L282.845 169.28L282.901 169.322L282.958 169.361L284.645 166.88ZM281.445 154.56L278.56 153.736L278.56 153.736L281.445 154.56ZM282.885 149.28L285.786 150.043L285.789 150.033L282.885 149.28ZM285.925 138.56L283.072 137.633L283.061 137.665L283.052 137.698L285.925 138.56ZM290.405 124.8L293.257 125.73L293.26 125.721L293.263 125.712L290.405 124.8ZM295.525 109.44L292.691 108.457L292.691 108.457L295.525 109.44ZM300.645 94.72L303.478 95.7081L303.481 95.6981L303.485 95.688L300.645 94.72ZM304.965 82.24L302.163 81.1686L302.149 81.2049L302.136 81.2415L304.965 82.24ZM327.365 94.56V91.56H325.203L324.519 93.6113L327.365 94.56ZM322.245 109.6L319.41 108.619L319.404 108.635L319.399 108.651L322.245 109.6ZM317.285 126.24L314.384 125.474L313.39 129.24H317.285V126.24ZM337.125 126.24V129.24H341.002L340.029 125.487L337.125 126.24ZM332.485 109.44L329.588 110.22L329.597 110.253L329.607 110.286L332.485 109.44ZM328.325 94.56L331.204 93.7173L330.573 91.56H328.325V94.56ZM309.686 76.5058C311.148 75.6457 313.558 74.7157 317.093 73.7801L315.557 67.9799C311.838 68.9643 308.808 70.061 306.644 71.3342L309.686 76.5058ZM317.072 73.7855C320.569 72.8862 324.052 72.44 327.525 72.44V66.44C323.532 66.44 319.547 66.9538 315.578 67.9745L317.072 73.7855ZM327.525 72.44C332.563 72.44 336.87 73.1961 340.504 74.6305L342.707 69.0495C338.234 67.2839 333.154 66.44 327.525 66.44V72.44ZM340.591 74.6636C344.144 75.9389 345.981 77.7985 346.778 80.0432L352.432 78.0368C350.882 73.6681 347.386 70.7278 342.619 69.0164L340.591 74.6636ZM346.77 80.0213C348.675 85.5233 350.743 91.9393 352.975 99.2735L358.715 97.5265C356.467 90.1407 354.375 83.65 352.44 78.0587L346.77 80.0213ZM352.975 99.2735C355.209 106.614 357.444 114.223 359.679 122.099L365.451 120.461C363.206 112.551 360.961 104.906 358.715 97.5265L352.975 99.2735ZM359.682 122.109C361.919 129.887 364.104 137.612 366.234 145.283L372.016 143.677C369.88 135.988 367.691 128.246 365.448 120.451L359.682 122.109ZM366.237 145.293C368.369 152.861 370.233 159.573 371.831 165.429L377.619 163.851C376.017 157.974 374.148 151.246 372.013 143.667L366.237 145.293ZM372.447 162.688C371.629 163.642 370.245 164.571 368.016 165.314L369.914 171.006C372.805 170.042 375.261 168.625 377.003 166.592L372.447 162.688ZM367.912 165.351C365.77 166.154 363.104 166.6 359.845 166.6V172.6C363.626 172.6 367.04 172.086 370.018 170.969L367.912 165.351ZM359.845 166.6C357.437 166.6 355.494 166.398 353.972 166.04L352.598 171.88C354.702 172.375 357.133 172.6 359.845 172.6V166.6ZM354.013 166.05C352.602 165.697 351.533 165.198 350.73 164.614L347.2 169.466C348.744 170.589 350.555 171.37 352.557 171.87L354.013 166.05ZM350.839 164.697C350.132 164.132 349.471 163.343 348.886 162.258L343.604 165.102C344.513 166.79 345.665 168.242 347.091 169.383L350.839 164.697ZM348.969 162.423C348.403 161.196 347.864 159.738 347.363 158.034L341.607 159.726C342.172 161.649 342.807 163.391 343.521 164.937L348.969 162.423ZM347.388 158.123L344.508 147.083L338.702 148.597L341.582 159.637L347.388 158.123ZM341.605 144.84H312.645V150.84H341.605V144.84ZM309.746 147.067C308.889 150.283 308.031 153.605 307.175 157.032L312.995 158.488C313.845 155.089 314.695 151.797 315.544 148.613L309.746 147.067ZM307.175 157.032C306.325 160.431 305.475 163.723 304.626 166.907L310.424 168.453C311.281 165.237 312.139 161.915 312.995 158.488L307.175 157.032ZM306.516 164.855C305.184 165.33 303.738 165.718 302.172 166.011L303.278 171.909C305.125 171.562 306.879 171.096 308.534 170.505L306.516 164.855ZM301.952 166.061C300.685 166.399 298.99 166.6 296.805 166.6V172.6C299.314 172.6 301.565 172.374 303.498 171.859L301.952 166.061ZM296.805 166.6C291.596 166.6 288.264 165.713 286.332 164.399L282.958 169.361C286.359 171.673 291.134 172.6 296.805 172.6V166.6ZM286.445 164.48C284.67 163.148 283.805 161.439 283.805 159.04H277.805C277.805 163.254 279.5 166.772 282.845 169.28L286.445 164.48ZM283.805 159.04C283.805 157.836 283.976 156.62 284.33 155.384L278.56 153.736C278.06 155.486 277.805 157.257 277.805 159.04H283.805ZM284.33 155.384C284.764 153.865 285.249 152.084 285.786 150.043L279.984 148.517C279.454 150.529 278.98 152.268 278.56 153.736L284.33 155.384ZM285.789 150.033C286.523 147.203 287.525 143.668 288.798 139.422L283.052 137.698C281.765 141.985 280.741 145.597 279.981 148.527L285.789 150.033ZM288.778 139.487C290.164 135.222 291.657 130.636 293.257 125.73L287.553 123.87C285.953 128.777 284.459 133.365 283.072 137.633L288.778 139.487ZM293.263 125.712C294.855 120.724 296.554 115.628 298.359 110.423L292.691 108.457C290.87 113.706 289.155 118.85 287.547 123.888L293.263 125.712ZM298.359 110.423C300.172 105.198 301.878 100.293 303.478 95.7081L297.812 93.7319C296.212 98.3203 294.505 103.229 292.691 108.457L298.359 110.423ZM303.485 95.688C305.082 91.0021 306.518 86.8526 307.794 83.2385L302.136 81.2415C300.852 84.8807 299.408 89.0512 297.805 93.752L303.485 95.688ZM307.767 83.3114C309.153 79.6863 310.217 76.9193 310.961 75.0073L305.369 72.8327C304.619 74.7607 303.55 77.5404 302.163 81.1686L307.767 83.3114ZM324.519 93.6113C323.03 98.0782 321.327 103.08 319.41 108.619L325.08 110.581C327.003 105.026 328.713 100.002 330.211 95.5087L324.519 93.6113ZM319.399 108.651C317.565 114.153 315.894 119.76 314.384 125.474L320.186 127.006C321.663 121.413 323.298 115.927 325.091 110.549L319.399 108.651ZM317.285 129.24H337.125V123.24H317.285V129.24ZM340.029 125.487C338.528 119.697 336.973 114.066 335.363 108.593L329.607 110.286C331.197 115.694 332.735 121.263 334.221 126.993L340.029 125.487ZM335.382 108.66C333.884 103.098 332.492 98.116 331.204 93.7173L325.446 95.4027C326.718 99.7506 328.099 104.689 329.588 110.22L335.382 108.66ZM328.325 91.56H327.365V97.56H328.325V91.56ZM475.678 164.64L477.799 166.761L478.678 165.883V164.64H475.678ZM469.118 168L468.365 165.096L468.3 165.113L468.235 165.133L469.118 168ZM447.838 167.52L448.786 164.674L448.786 164.674L447.838 167.52ZM439.198 159.04L436.504 160.36L436.509 160.371L436.514 160.382L439.198 159.04ZM423.358 126.72L420.657 128.027L420.66 128.033L420.664 128.04L423.358 126.72ZM419.038 117.44L416.28 118.622L416.288 118.64L416.296 118.658L419.038 117.44ZM414.878 107.2L417.674 106.113L416.79 103.84L414.384 104.241L414.878 107.2ZM413.918 107.36L413.424 104.401L410.723 104.851L410.926 107.582L413.918 107.36ZM414.558 124.96H411.558V124.987L411.558 125.014L414.558 124.96ZM414.718 167.36L415.507 170.254L417.718 169.651V167.36H414.718ZM409.278 168.32L408.889 165.345L408.881 165.346L408.872 165.348L409.278 168.32ZM395.998 168.32L396.519 165.366L395.998 168.32ZM391.518 166.4L393.417 164.078L391.518 166.4ZM388.798 162.56L385.989 163.613L386 163.644L386.012 163.674L388.798 162.56ZM387.838 76L385.38 74.2796L384.838 75.0543V76H387.838ZM394.718 71.2L393.74 68.3639L393.74 68.3639L394.718 71.2ZM415.838 71.52L414.812 74.3394L414.863 74.3578L414.914 74.3743L415.838 71.52ZM424.477 79.84L421.781 81.1553L421.785 81.1631L421.789 81.171L424.477 79.84ZM440.478 112.16L443.178 110.853L443.172 110.841L443.166 110.829L440.478 112.16ZM444.798 121.6L442.04 122.782L442.048 122.8L442.056 122.818L444.798 121.6ZM448.958 131.68L446.161 132.767L447.075 135.116L449.546 134.622L448.958 131.68ZM449.758 131.52L450.346 134.462L452.945 133.942L452.749 131.298L449.758 131.52ZM448.958 114.24L451.957 114.184L451.957 114.184L448.958 114.24ZM448.798 71.04L448.008 68.1457L445.798 68.7486V71.04H448.798ZM454.078 70.08L453.689 67.1052L453.681 67.1063L453.672 67.1075L454.078 70.08ZM471.998 72.16L470.284 74.6227L470.321 74.6483L470.359 74.6728L471.998 72.16ZM473.556 162.519C472.565 163.51 470.928 164.431 468.365 165.096L469.87 170.904C473.067 170.075 475.803 168.757 477.799 166.761L473.556 162.519ZM468.235 165.133C465.83 165.873 462.785 166.28 459.038 166.28V172.28C463.183 172.28 466.859 171.834 470 170.867L468.235 165.133ZM459.038 166.28C455.393 166.28 451.981 165.739 448.786 164.674L446.889 170.366C450.734 171.648 454.789 172.28 459.038 172.28V166.28ZM448.786 164.674C446.255 163.83 443.893 161.723 441.881 157.698L436.514 160.382C438.982 165.317 442.38 168.863 446.889 170.366L448.786 164.674ZM441.891 157.72L426.051 125.4L420.664 128.04L436.504 160.36L441.891 157.72ZM426.058 125.413C424.47 122.131 423.044 119.068 421.779 116.222L416.296 118.658C417.591 121.572 419.045 124.695 420.657 128.027L426.058 125.413ZM421.795 116.258C420.531 113.31 419.158 109.929 417.674 106.113L412.081 108.287C413.584 112.151 414.984 115.597 416.28 118.622L421.795 116.258ZM414.384 104.241L413.424 104.401L414.411 110.319L415.371 110.159L414.384 104.241ZM410.926 107.582C411.347 113.265 411.558 119.058 411.558 124.96H417.558C417.558 118.915 417.342 112.975 416.909 107.138L410.926 107.582ZM411.558 125.014C411.664 130.97 411.718 136.818 411.718 142.56H417.718C417.718 136.781 417.664 130.897 417.557 124.906L411.558 125.014ZM411.718 142.56V167.36H417.718V142.56H411.718ZM413.928 164.466C412.961 164.729 411.316 165.029 408.889 165.345L409.666 171.295C412.146 170.971 414.127 170.631 415.507 170.254L413.928 164.466ZM408.872 165.348C406.659 165.649 404.447 165.8 402.238 165.8V171.8C404.721 171.8 407.203 171.631 409.683 171.292L408.872 165.348ZM402.238 165.8C400.021 165.8 398.121 165.648 396.519 165.366L395.476 171.274C397.501 171.632 399.761 171.8 402.238 171.8V165.8ZM396.519 165.366C395.104 165.116 394.116 164.65 393.417 164.078L389.618 168.722C391.266 170.07 393.265 170.884 395.476 171.274L396.519 165.366ZM393.417 164.078C392.688 163.481 392.061 162.64 391.583 161.446L386.012 163.674C386.814 165.68 388.001 167.399 389.618 168.722L393.417 164.078ZM391.606 161.507C391.137 160.254 390.838 158.458 390.838 156H384.838C384.838 158.875 385.178 161.452 385.989 163.613L391.606 161.507ZM390.838 156V76H384.838V156H390.838ZM390.295 77.7204C391.341 76.2257 393.046 74.9498 395.695 74.0361L393.74 68.3639C390.203 69.5835 387.32 71.5076 385.38 74.2796L390.295 77.7204ZM395.695 74.0361C398.451 73.0859 401.425 72.6 404.638 72.6V66.6C400.81 66.6 397.171 67.1808 393.74 68.3639L395.695 74.0361ZM404.638 72.6C408.253 72.6 411.638 73.1852 414.812 74.3394L416.863 68.7006C412.997 67.2948 408.915 66.6 404.638 66.6V72.6ZM414.914 74.3743C417.565 75.2319 419.901 77.3007 421.781 81.1553L427.174 78.5247C424.787 73.6326 421.363 70.1547 416.761 68.6657L414.914 74.3743ZM421.789 81.171L437.789 113.491L443.166 110.829L427.166 78.509L421.789 81.171ZM437.777 113.467C439.36 116.737 440.78 119.842 442.04 122.782L447.555 120.418C446.255 117.385 444.795 114.196 443.178 110.853L437.777 113.467ZM442.056 122.818C443.312 125.644 444.68 128.959 446.161 132.767L451.754 130.593C450.248 126.721 448.843 123.316 447.539 120.382L442.056 122.818ZM449.546 134.622L450.346 134.462L449.169 128.578L448.369 128.738L449.546 134.622ZM452.749 131.298C452.327 125.594 452.063 119.889 451.957 114.184L445.958 114.296C446.066 120.111 446.335 125.926 446.766 131.742L452.749 131.298ZM451.957 114.184C451.851 108.443 451.798 102.701 451.798 96.96H445.798C445.798 102.739 445.851 108.517 445.958 114.296L451.957 114.184ZM451.798 96.96V71.04H445.798V96.96H451.798ZM449.587 73.9343C450.566 73.6673 452.169 73.368 454.483 73.0525L453.672 67.1075C451.293 67.4319 449.376 67.7727 448.008 68.1457L449.587 73.9343ZM454.466 73.0548C456.797 72.7507 459.067 72.6 461.278 72.6V66.6C458.794 66.6 456.265 66.7693 453.689 67.1052L454.466 73.0548ZM461.278 72.6C465.682 72.6 468.546 73.4136 470.284 74.6227L473.711 69.6973C470.542 67.493 466.26 66.6 461.278 66.6V72.6ZM470.359 74.6728C471.469 75.3966 472.678 77.4047 472.678 82.4H478.678C478.678 76.942 477.433 72.1234 473.636 69.6472L470.359 74.6728ZM472.678 82.4V164.64H478.678V82.4H472.678ZM524.271 147.2H521.271V149.704L523.735 150.152L524.271 147.2ZM528.591 147.84L528.219 150.817L528.311 150.828L528.404 150.834L528.591 147.84ZM543.311 146.4L542.333 143.564L542.318 143.569L542.302 143.575L543.311 146.4ZM551.151 141.44L549.03 139.319L549.004 139.345L548.979 139.371L551.151 141.44ZM556.271 132.8L553.442 131.802L553.434 131.826L553.425 131.851L556.271 132.8ZM551.471 98.24L549.256 100.263L549.267 100.275L549.278 100.287L551.471 98.24ZM528.911 91.04L528.712 88.0466L528.705 88.0471L528.698 88.0476L528.911 91.04ZM524.271 91.52L523.875 88.5463L521.271 88.8934V91.52H524.271ZM526.991 170.4L526.855 173.397L526.855 173.397L526.991 170.4ZM519.631 169.76L519.243 172.735L519.251 172.736L519.259 172.737L519.631 169.76ZM512.111 168.48L512.723 165.543L512.674 165.533L512.625 165.524L512.111 168.48ZM505.231 166.56L506.345 163.775L506.323 163.766L506.301 163.757L505.231 166.56ZM498.191 75.04L500.313 77.1613L500.313 77.1613L498.191 75.04ZM503.311 72L502.382 69.1474L502.351 69.1576L502.32 69.1684L503.311 72ZM517.871 69.12L518.12 72.1096L518.151 72.1071L518.182 72.1039L517.871 69.12ZM554.191 71.36L553.325 74.2322L553.337 74.2359L554.191 71.36ZM571.631 80.8L569.638 83.0422L569.664 83.0656L569.691 83.0883L571.631 80.8ZM582.991 96.64L580.222 97.7938L580.222 97.7938L582.991 96.64ZM583.151 141.76L585.93 142.89L585.933 142.882L585.937 142.874L583.151 141.76ZM572.111 157.76L574.129 159.98L574.132 159.978L572.111 157.76ZM555.151 167.36L554.23 164.505L555.151 167.36ZM523.735 150.152C524.981 150.378 526.479 150.599 528.219 150.817L528.963 144.863C527.29 144.654 525.909 144.449 524.808 144.248L523.735 150.152ZM528.404 150.834C530.164 150.944 531.827 151 533.391 151V145C531.969 145 530.431 144.949 528.778 144.846L528.404 150.834ZM533.391 151C537.313 151 540.967 150.423 544.32 149.225L542.302 143.575C539.682 144.51 536.723 145 533.391 145V151ZM544.289 149.236C547.809 148.022 550.84 146.117 553.324 143.509L548.979 139.371C547.196 141.243 545 142.644 542.333 143.564L544.289 149.236ZM553.273 143.561C555.894 140.94 557.822 137.635 559.117 133.749L553.425 131.851C552.374 135.005 550.889 137.46 549.03 139.319L553.273 143.561ZM559.1 133.798C560.522 129.77 561.191 125.096 561.191 119.84H555.191C555.191 124.611 554.581 128.576 553.442 131.802L559.1 133.798ZM561.191 119.84C561.191 109.827 558.859 101.759 553.664 96.193L549.278 100.287C553.043 104.321 555.191 110.653 555.191 119.84H561.191ZM553.687 96.2172C548.565 90.6074 541.745 87.88 533.551 87.88V93.88C540.291 93.88 545.418 96.0592 549.256 100.263L553.687 96.2172ZM533.551 87.88C531.987 87.88 530.373 87.9359 528.712 88.0466L529.111 94.0333C530.649 93.9308 532.129 93.88 533.551 93.88V87.88ZM528.698 88.0476C527.139 88.159 525.531 88.3255 523.875 88.5463L524.668 94.4937C526.212 94.2878 527.697 94.1344 529.125 94.0324L528.698 88.0476ZM521.271 91.52V147.2H527.271V91.52H521.271ZM533.231 167.56C531.474 167.56 529.441 167.508 527.127 167.403L526.855 173.397C529.235 173.505 531.362 173.56 533.231 173.56V167.56ZM527.127 167.403C524.867 167.3 522.493 167.094 520.003 166.783L519.259 172.737C521.89 173.066 524.422 173.286 526.855 173.397L527.127 167.403ZM520.019 166.785C517.645 166.476 515.213 166.062 512.723 165.543L511.499 171.417C514.129 171.965 516.711 172.404 519.243 172.735L520.019 166.785ZM512.625 165.524C510.36 165.13 508.27 164.544 506.345 163.775L504.117 169.345C506.459 170.282 508.955 170.976 511.597 171.436L512.625 165.524ZM506.301 163.757C503.745 162.781 502.07 161.538 501.027 160.155C500.006 158.799 499.431 157.096 499.431 154.88H493.431C493.431 158.211 494.324 161.228 496.235 163.765C498.126 166.275 500.851 168.099 504.161 169.363L506.301 163.757ZM499.431 154.88V80.16H493.431V154.88H499.431ZM499.431 80.16C499.431 78.4293 499.876 77.5976 500.313 77.1613L496.07 72.9187C494.16 74.8291 493.431 77.4107 493.431 80.16H499.431ZM500.313 77.1613C501.205 76.2691 502.491 75.4655 504.302 74.8316L502.32 69.1684C499.865 70.0279 497.738 71.2509 496.07 72.9187L500.313 77.1613ZM504.24 74.8526C508.592 73.4356 513.217 72.5183 518.12 72.1096L517.622 66.1304C512.286 66.575 507.203 67.5778 502.382 69.1474L504.24 74.8526ZM518.182 72.1039C523.225 71.5786 527.705 71.32 531.631 71.32V65.32C527.451 65.32 522.758 65.5948 517.56 66.1361L518.182 72.1039ZM531.631 71.32C539.711 71.32 546.932 72.3043 553.325 74.2322L555.057 68.4878C548.01 66.3624 540.192 65.32 531.631 65.32V71.32ZM553.337 74.2359C559.789 76.1512 565.201 79.0982 569.638 83.0422L573.624 78.5578C568.461 73.9684 562.247 70.6221 555.045 68.4841L553.337 74.2359ZM569.691 83.0883C574.208 86.9175 577.724 91.7974 580.222 97.7938L585.76 95.4862C582.926 88.6826 578.868 83.0024 573.571 78.5117L569.691 83.0883ZM580.222 97.7938C582.702 103.746 583.991 110.91 583.991 119.36H589.991C589.991 110.317 588.614 102.334 585.76 95.4862L580.222 97.7938ZM583.991 119.36C583.991 127.6 582.755 134.674 580.366 140.646L585.937 142.874C588.668 136.046 589.991 128.187 589.991 119.36H583.991ZM580.372 140.63C577.973 146.528 574.545 151.484 570.091 155.542L574.132 159.978C579.278 155.289 583.21 149.578 585.93 142.89L580.372 140.63ZM570.093 155.54C565.745 159.493 560.476 162.49 554.23 164.505L556.072 170.215C563.053 167.963 569.091 164.56 574.129 159.98L570.093 155.54ZM554.23 164.505C547.956 166.529 540.965 167.56 533.231 167.56V173.56C541.498 173.56 549.12 172.458 556.072 170.215L554.23 164.505ZM622.54 73.92L621.019 71.3342L620.121 71.8622L619.744 72.8327L622.54 73.92ZM630.7 70.88L629.953 67.9745L629.943 67.9772L629.932 67.9799L630.7 70.88ZM655.98 71.84L654.879 74.6305L654.922 74.6477L654.966 74.6636L655.98 71.84ZM663.98 79.04L666.815 78.0587L666.811 78.0477L666.807 78.0368L663.98 79.04ZM670.22 98.4L673.09 97.5265L673.09 97.5265L670.22 98.4ZM676.94 121.28L674.054 122.099L674.057 122.109L676.94 121.28ZM683.5 144.48L680.609 145.283L680.612 145.293L683.5 144.48ZM689.1 164.64L691.378 166.592L692.413 165.385L691.994 163.851L689.1 164.64ZM683.34 168.16L682.391 165.314L682.339 165.332L682.287 165.351L683.34 168.16ZM667.66 168.96L666.932 171.87L666.953 171.875L666.973 171.88L667.66 168.96ZM663.34 167.04L661.466 169.383L661.52 169.426L661.575 169.466L663.34 167.04ZM660.62 163.68L657.896 164.937L657.935 165.021L657.979 165.102L660.62 163.68ZM658.86 158.88L655.957 159.637L655.969 159.682L655.982 159.726L658.86 158.88ZM655.98 147.84L658.883 147.083L658.298 144.84H655.98V147.84ZM627.02 147.84V144.84H624.715L624.121 147.067L627.02 147.84ZM624.46 157.76L621.55 157.032L621.55 157.032L624.46 157.76ZM621.9 167.68L622.909 170.505L624.393 169.975L624.799 168.453L621.9 167.68ZM617.1 168.96L616.547 166.011L616.436 166.032L616.327 166.061L617.1 168.96ZM599.02 166.88L597.22 169.28L597.276 169.322L597.333 169.361L599.02 166.88ZM595.82 154.56L592.935 153.736L592.935 153.736L595.82 154.56ZM597.26 149.28L600.161 150.043L600.164 150.033L597.26 149.28ZM600.3 138.56L597.447 137.633L597.436 137.665L597.427 137.698L600.3 138.56ZM604.78 124.8L607.632 125.73L607.635 125.721L607.638 125.712L604.78 124.8ZM609.9 109.44L607.066 108.457L607.066 108.457L609.9 109.44ZM615.02 94.72L617.853 95.7081L617.856 95.6981L617.86 95.688L615.02 94.72ZM619.34 82.24L616.538 81.1686L616.524 81.2049L616.511 81.2415L619.34 82.24ZM641.74 94.56V91.56H639.578L638.894 93.6113L641.74 94.56ZM636.62 109.6L633.785 108.619L633.779 108.635L633.774 108.651L636.62 109.6ZM631.66 126.24L628.759 125.474L627.765 129.24H631.66V126.24ZM651.5 126.24V129.24H655.377L654.404 125.487L651.5 126.24ZM646.86 109.44L643.963 110.22L643.972 110.253L643.982 110.286L646.86 109.44ZM642.7 94.56L645.579 93.7173L644.948 91.56H642.7V94.56ZM624.061 76.5058C625.523 75.6457 627.933 74.7157 631.468 73.7801L629.932 67.9799C626.213 68.9643 623.183 70.061 621.019 71.3342L624.061 76.5058ZM631.447 73.7855C634.944 72.8862 638.427 72.44 641.9 72.44V66.44C637.907 66.44 633.922 66.9538 629.953 67.9745L631.447 73.7855ZM641.9 72.44C646.938 72.44 651.245 73.1961 654.879 74.6305L657.082 69.0495C652.609 67.2839 647.529 66.44 641.9 66.44V72.44ZM654.966 74.6636C658.519 75.9389 660.356 77.7985 661.153 80.0432L666.807 78.0368C665.257 73.6681 661.761 70.7278 656.994 69.0164L654.966 74.6636ZM661.145 80.0213C663.05 85.5233 665.118 91.9393 667.35 99.2735L673.09 97.5265C670.842 90.1407 668.75 83.65 666.815 78.0587L661.145 80.0213ZM667.35 99.2735C669.584 106.614 671.819 114.223 674.054 122.099L679.826 120.461C677.581 112.551 675.336 104.906 673.09 97.5265L667.35 99.2735ZM674.057 122.109C676.294 129.887 678.479 137.612 680.609 145.283L686.391 143.677C684.255 135.988 682.066 128.246 679.823 120.451L674.057 122.109ZM680.612 145.293C682.744 152.861 684.608 159.573 686.206 165.429L691.994 163.851C690.392 157.974 688.523 151.246 686.388 143.667L680.612 145.293ZM686.822 162.688C686.004 163.642 684.62 164.571 682.391 165.314L684.289 171.006C687.18 170.042 689.636 168.625 691.378 166.592L686.822 162.688ZM682.287 165.351C680.145 166.154 677.479 166.6 674.22 166.6V172.6C678.001 172.6 681.415 172.086 684.393 170.969L682.287 165.351ZM674.22 166.6C671.812 166.6 669.869 166.398 668.347 166.04L666.973 171.88C669.077 172.375 671.508 172.6 674.22 172.6V166.6ZM668.388 166.05C666.977 165.697 665.908 165.198 665.105 164.614L661.575 169.466C663.119 170.589 664.93 171.37 666.932 171.87L668.388 166.05ZM665.214 164.697C664.507 164.132 663.846 163.343 663.261 162.258L657.979 165.102C658.888 166.79 660.04 168.242 661.466 169.383L665.214 164.697ZM663.344 162.423C662.778 161.196 662.239 159.738 661.738 158.034L655.982 159.726C656.547 161.649 657.182 163.391 657.896 164.937L663.344 162.423ZM661.763 158.123L658.883 147.083L653.077 148.597L655.957 159.637L661.763 158.123ZM655.98 144.84H627.02V150.84H655.98V144.84ZM624.121 147.067C623.264 150.283 622.406 153.605 621.55 157.032L627.37 158.488C628.22 155.089 629.07 151.797 629.919 148.613L624.121 147.067ZM621.55 157.032C620.7 160.431 619.85 163.723 619.001 166.907L624.799 168.453C625.656 165.237 626.514 161.915 627.37 158.488L621.55 157.032ZM620.891 164.855C619.559 165.33 618.113 165.718 616.547 166.011L617.653 171.909C619.5 171.562 621.254 171.096 622.909 170.505L620.891 164.855ZM616.327 166.061C615.06 166.399 613.365 166.6 611.18 166.6V172.6C613.689 172.6 615.94 172.374 617.873 171.859L616.327 166.061ZM611.18 166.6C605.971 166.6 602.639 165.713 600.707 164.399L597.333 169.361C600.734 171.673 605.509 172.6 611.18 172.6V166.6ZM600.82 164.48C599.045 163.148 598.18 161.439 598.18 159.04H592.18C592.18 163.254 593.875 166.772 597.22 169.28L600.82 164.48ZM598.18 159.04C598.18 157.836 598.351 156.62 598.705 155.384L592.935 153.736C592.435 155.486 592.18 157.257 592.18 159.04H598.18ZM598.705 155.384C599.139 153.865 599.624 152.084 600.161 150.043L594.359 148.517C593.829 150.529 593.355 152.268 592.935 153.736L598.705 155.384ZM600.164 150.033C600.898 147.203 601.9 143.668 603.173 139.422L597.427 137.698C596.14 141.985 595.116 145.597 594.356 148.527L600.164 150.033ZM603.153 139.487C604.539 135.222 606.032 130.636 607.632 125.73L601.928 123.87C600.328 128.777 598.834 133.365 597.447 137.633L603.153 139.487ZM607.638 125.712C609.23 120.724 610.929 115.628 612.734 110.423L607.066 108.457C605.245 113.706 603.53 118.85 601.922 123.888L607.638 125.712ZM612.734 110.423C614.547 105.198 616.253 100.293 617.853 95.7081L612.187 93.7319C610.587 98.3203 608.88 103.229 607.066 108.457L612.734 110.423ZM617.86 95.688C619.457 91.0021 620.893 86.8526 622.169 83.2385L616.511 81.2415C615.227 84.8807 613.783 89.0512 612.18 93.752L617.86 95.688ZM622.142 83.3114C623.528 79.6863 624.592 76.9193 625.336 75.0073L619.744 72.8327C618.994 74.7607 617.925 77.5404 616.538 81.1686L622.142 83.3114ZM638.894 93.6113C637.405 98.0782 635.702 103.08 633.785 108.619L639.455 110.581C641.378 105.026 643.088 100.002 644.586 95.5087L638.894 93.6113ZM633.774 108.651C631.94 114.153 630.269 119.76 628.759 125.474L634.561 127.006C636.038 121.413 637.673 115.927 639.466 110.549L633.774 108.651ZM631.66 129.24H651.5V123.24H631.66V129.24ZM654.404 125.487C652.903 119.697 651.348 114.066 649.738 108.593L643.982 110.286C645.572 115.694 647.11 121.263 648.596 126.993L654.404 125.487ZM649.757 108.66C648.259 103.098 646.867 98.116 645.579 93.7173L639.821 95.4027C641.093 99.7506 642.474 104.689 643.963 110.22L649.757 108.66ZM642.7 91.56H641.74V97.56H642.7V91.56ZM730.053 136.64V133.64H727.053V136.64H730.053ZM730.053 167.36L730.842 170.254L733.053 169.651V167.36H730.053ZM724.453 168.32L724.08 165.343L724.072 165.344L724.064 165.345L724.453 168.32ZM710.533 168.16L711.183 165.231L711.119 165.217L711.054 165.206L710.533 168.16ZM705.893 166.24L703.993 168.562L704.042 168.602L704.093 168.64L705.893 166.24ZM703.173 162.24L700.364 163.293L700.364 163.293L703.173 162.24ZM703.973 75.04L706.094 77.1613L706.094 77.1613L703.973 75.04ZM709.093 72L710.084 74.8316L710.091 74.829L709.093 72ZM721.733 69.28L722.064 72.2616L722.096 72.258L722.129 72.2537L721.733 69.28ZM770.373 77.6L768.458 79.9101L768.458 79.9101L770.373 77.6ZM776.453 119.68L778.879 121.445L778.879 121.445L776.453 119.68ZM764.293 130.56L762.856 127.926L759.843 129.57L761.875 132.336L764.293 130.56ZM775.653 145.28L777.979 143.386L777.979 143.386L775.653 145.28ZM784.453 157.76L787.337 158.584L787.684 157.369L787.057 156.272L784.453 157.76ZM778.533 166.4L780.24 168.867L780.25 168.86L780.259 168.853L778.533 166.4ZM763.013 168.48L763.907 165.617L763.013 168.48ZM758.533 166.24L760.333 163.84L758.533 166.24ZM755.013 162.72L752.635 164.549L752.635 164.549L755.013 162.72ZM751.973 158.24L754.545 156.697L754.532 156.676L754.52 156.655L751.973 158.24ZM738.533 136.64L741.08 135.055L740.199 133.64H738.533V136.64ZM749.733 112.32L751.693 114.59L751.722 114.566L751.751 114.54L749.733 112.32ZM749.253 93.92L747.332 96.2247L747.384 96.2678L747.437 96.3085L749.253 93.92ZM729.893 91.36L729.356 88.4084L726.893 88.8563V91.36H729.893ZM729.893 115.36H726.893V118.36H729.893V115.36ZM727.053 136.64V167.36H733.053V136.64H727.053ZM729.263 164.466C728.308 164.726 726.619 165.026 724.08 165.343L724.825 171.297C727.406 170.974 729.451 170.634 730.842 170.254L729.263 164.466ZM724.064 165.345C721.739 165.649 719.415 165.8 717.093 165.8V171.8C719.677 171.8 722.26 171.631 724.841 171.295L724.064 165.345ZM717.093 165.8C714.807 165.8 712.845 165.601 711.183 165.231L709.882 171.089C712.06 171.573 714.472 171.8 717.093 171.8V165.8ZM711.054 165.206C709.634 164.955 708.543 164.478 707.693 163.84L704.093 168.64C705.802 169.922 707.804 170.725 710.011 171.114L711.054 165.206ZM707.792 163.918C707.104 163.355 706.473 162.498 705.981 161.187L700.364 163.293C701.152 165.395 702.334 167.205 703.993 168.562L707.792 163.918ZM705.981 161.187C705.516 159.945 705.213 158.102 705.213 155.52H699.213C699.213 158.485 699.549 161.122 700.364 163.293L705.981 161.187ZM705.213 155.52V80.16H699.213V155.52H705.213ZM705.213 80.16C705.213 78.4293 705.658 77.5976 706.094 77.1613L701.851 72.9187C699.941 74.8291 699.213 77.4107 699.213 80.16H705.213ZM706.094 77.1613C706.986 76.2691 708.272 75.4655 710.084 74.8316L708.101 69.1684C705.646 70.0279 703.519 71.2509 701.851 72.9187L706.094 77.1613ZM710.091 74.829C713.455 73.6416 717.436 72.7758 722.064 72.2616L721.401 66.2983C716.429 66.8508 711.983 67.7984 708.094 69.171L710.091 74.829ZM722.129 72.2537C726.783 71.6332 731.769 71.32 737.093 71.32V65.32C731.536 65.32 726.282 65.6468 721.336 66.3063L722.129 72.2537ZM737.093 71.32C751.46 71.32 761.747 74.3493 768.458 79.9101L772.287 75.2899C764.064 68.4773 752.165 65.32 737.093 65.32V71.32ZM768.458 79.9101C775.171 85.4715 778.573 92.9629 778.573 102.72H784.573C784.573 91.3571 780.508 82.1018 772.287 75.2899L768.458 79.9101ZM778.573 102.72C778.573 108.791 777.016 113.805 774.026 117.915L778.879 121.445C782.716 116.169 784.573 109.875 784.573 102.72H778.573ZM774.026 117.915C770.852 122.281 767.127 125.597 762.856 127.926L765.729 133.194C770.845 130.403 775.227 126.466 778.879 121.445L774.026 117.915ZM761.875 132.336C765.741 137.599 769.558 142.545 773.326 147.174L777.979 143.386C774.28 138.841 770.524 133.974 766.71 128.784L761.875 132.336ZM773.326 147.174C776.991 151.677 779.82 155.699 781.848 159.248L787.057 156.272C784.819 152.354 781.781 148.057 777.979 143.386L773.326 147.174ZM781.568 156.936C780.669 160.082 779.067 162.356 776.806 163.947L780.259 168.853C783.758 166.391 786.103 162.905 787.337 158.584L781.568 156.936ZM776.825 163.933C774.576 165.49 772.03 166.28 769.093 166.28V172.28C773.195 172.28 776.942 171.15 780.24 168.867L776.825 163.933ZM769.093 166.28C766.96 166.28 765.25 166.036 763.907 165.617L762.118 171.343C764.188 171.99 766.531 172.28 769.093 172.28V166.28ZM763.907 165.617C762.489 165.173 761.309 164.573 760.333 163.84L756.733 168.64C758.316 169.827 760.123 170.72 762.118 171.343L763.907 165.617ZM760.333 163.84C759.289 163.058 758.307 162.082 757.39 160.891L752.635 164.549C753.852 166.131 755.216 167.502 756.733 168.64L760.333 163.84ZM757.39 160.891C756.398 159.601 755.45 158.204 754.545 156.697L749.4 159.783C750.415 161.476 751.493 163.065 752.635 164.549L757.39 160.891ZM754.52 156.655L741.08 135.055L735.985 138.225L749.425 159.825L754.52 156.655ZM738.533 133.64H730.053V139.64H738.533V133.64ZM740.133 118.36C744.681 118.36 748.653 117.217 751.693 114.59L747.772 110.05C746.119 111.477 743.691 112.36 740.133 112.36V118.36ZM751.751 114.54C754.886 111.689 756.253 107.688 756.253 103.04H750.253C750.253 106.498 749.272 108.684 747.714 110.1L751.751 114.54ZM756.253 103.04C756.253 98.2695 754.64 94.2467 751.068 91.5315L747.437 96.3085C749.198 97.6466 750.253 99.7038 750.253 103.04H756.253ZM751.173 91.6153C747.809 88.8118 742.841 87.72 736.933 87.72V93.72C742.331 93.72 745.576 94.7615 747.332 96.2247L751.173 91.6153ZM736.933 87.72C735.283 87.72 733.879 87.7742 732.761 87.8983L733.424 93.8616C734.226 93.7725 735.382 93.72 736.933 93.72V87.72ZM732.761 87.8983C731.719 88.0142 730.582 88.1854 729.356 88.4084L730.429 94.3116C731.549 94.1079 732.546 93.9591 733.424 93.8616L732.761 87.8983ZM726.893 91.36V115.36H732.893V91.36H726.893ZM729.893 118.36H740.133V112.36H729.893V118.36ZM827.713 167.36L828.502 170.254L830.713 169.651V167.36H827.713ZM822.113 168.32L821.74 165.343L821.732 165.344L821.724 165.345L822.113 168.32ZM808.193 168.16L808.843 165.231L808.779 165.217L808.714 165.206L808.193 168.16ZM803.553 166.24L801.752 168.64L801.753 168.64L803.553 166.24ZM800.673 162.24L797.864 163.293L797.864 163.293L800.673 162.24ZM799.713 71.04L799.176 68.0884L796.713 68.5363V71.04H799.713ZM805.313 70.24L805.685 73.2168L805.745 73.2092L805.806 73.1992L805.313 70.24ZM819.073 70.24L818.385 73.1603L818.482 73.1829L818.579 73.1992L819.073 70.24ZM823.873 72.16L822.072 74.56L822.073 74.56L823.873 72.16ZM826.753 76.16L823.944 77.2134L823.944 77.2134L826.753 76.16ZM826.923 164.466C825.968 164.726 824.279 165.026 821.74 165.343L822.485 171.297C825.066 170.974 827.111 170.634 828.502 170.254L826.923 164.466ZM821.724 165.345C819.399 165.649 817.075 165.8 814.753 165.8V171.8C817.337 171.8 819.92 171.631 822.501 171.295L821.724 165.345ZM814.753 165.8C812.467 165.8 810.505 165.601 808.843 165.231L807.542 171.089C809.72 171.573 812.132 171.8 814.753 171.8V165.8ZM808.714 165.206C807.294 164.955 806.203 164.478 805.353 163.84L801.753 168.64C803.462 169.922 805.464 170.725 807.671 171.114L808.714 165.206ZM805.353 163.84C804.592 163.269 803.949 162.434 803.481 161.187L797.864 163.293C798.676 165.459 799.953 167.291 801.752 168.64L805.353 163.84ZM803.481 161.187C803.016 159.945 802.713 158.102 802.713 155.52H796.713C796.713 158.485 797.049 161.122 797.864 163.293L803.481 161.187ZM802.713 155.52V71.04H796.713V155.52H802.713ZM800.249 73.9916C801.335 73.7942 803.132 73.5359 805.685 73.2168L804.94 67.2632C802.373 67.584 800.437 67.8592 799.176 68.0884L800.249 73.9916ZM805.806 73.1992C808.22 72.7969 810.507 72.6 812.673 72.6V66.6C810.144 66.6 807.525 66.8298 804.819 67.2808L805.806 73.1992ZM812.673 72.6C814.963 72.6 816.855 72.8002 818.385 73.1603L819.76 67.3197C817.663 66.8265 815.289 66.6 812.673 66.6V72.6ZM818.579 73.1992C820.127 73.4571 821.252 73.9443 822.072 74.56L825.673 69.76C823.933 68.4556 821.858 67.6629 819.566 67.2808L818.579 73.1992ZM822.073 74.56C822.833 75.1306 823.476 75.9661 823.944 77.2134L829.561 75.1066C828.749 72.9406 827.472 71.1094 825.673 69.76L822.073 74.56ZM823.944 77.2134C824.409 78.4553 824.713 80.2983 824.713 82.88H830.713C830.713 79.915 830.376 77.278 829.561 75.1066L823.944 77.2134ZM824.713 82.88V167.36H830.713V82.88H824.713ZM936.303 164.64L938.424 166.761L939.303 165.883V164.64H936.303ZM929.743 168L928.99 165.096L928.925 165.113L928.86 165.133L929.743 168ZM908.463 167.52L909.411 164.674L909.411 164.674L908.463 167.52ZM899.823 159.04L897.129 160.36L897.134 160.371L897.139 160.382L899.823 159.04ZM883.983 126.72L881.282 128.027L881.285 128.033L881.289 128.04L883.983 126.72ZM879.663 117.44L876.905 118.622L876.913 118.64L876.921 118.658L879.663 117.44ZM875.503 107.2L878.299 106.113L877.415 103.84L875.009 104.241L875.503 107.2ZM874.543 107.36L874.049 104.401L871.348 104.851L871.551 107.582L874.543 107.36ZM875.183 124.96H872.183V124.987L872.183 125.014L875.183 124.96ZM875.343 167.36L876.132 170.254L878.343 169.651V167.36H875.343ZM869.903 168.32L869.514 165.345L869.506 165.346L869.497 165.348L869.903 168.32ZM856.623 168.32L857.144 165.366L856.623 168.32ZM852.143 166.4L854.042 164.078L852.143 166.4ZM849.423 162.56L846.614 163.613L846.625 163.644L846.637 163.674L849.423 162.56ZM848.463 76L846.005 74.2796L845.463 75.0543V76H848.463ZM855.343 71.2L854.365 68.3639L854.365 68.3639L855.343 71.2ZM876.463 71.52L875.437 74.3394L875.488 74.3578L875.539 74.3743L876.463 71.52ZM885.102 79.84L882.406 81.1553L882.41 81.1631L882.414 81.171L885.102 79.84ZM901.103 112.16L903.803 110.853L903.797 110.841L903.791 110.829L901.103 112.16ZM905.423 121.6L902.665 122.782L902.673 122.8L902.681 122.818L905.423 121.6ZM909.583 131.68L906.786 132.767L907.7 135.116L910.171 134.622L909.583 131.68ZM910.383 131.52L910.971 134.462L913.57 133.942L913.374 131.298L910.383 131.52ZM909.583 114.24L912.582 114.184L912.582 114.184L909.583 114.24ZM909.423 71.04L908.633 68.1457L906.423 68.7486V71.04H909.423ZM914.703 70.08L914.314 67.1052L914.306 67.1063L914.297 67.1075L914.703 70.08ZM932.623 72.16L930.909 74.6227L930.946 74.6483L930.984 74.6728L932.623 72.16ZM934.181 162.519C933.19 163.51 931.553 164.431 928.99 165.096L930.495 170.904C933.692 170.075 936.428 168.757 938.424 166.761L934.181 162.519ZM928.86 165.133C926.455 165.873 923.41 166.28 919.663 166.28V172.28C923.808 172.28 927.484 171.834 930.625 170.867L928.86 165.133ZM919.663 166.28C916.018 166.28 912.606 165.739 909.411 164.674L907.514 170.366C911.359 171.648 915.414 172.28 919.663 172.28V166.28ZM909.411 164.674C906.88 163.83 904.518 161.723 902.506 157.698L897.139 160.382C899.607 165.317 903.005 168.863 907.514 170.366L909.411 164.674ZM902.516 157.72L886.676 125.4L881.289 128.04L897.129 160.36L902.516 157.72ZM886.683 125.413C885.095 122.131 883.669 119.068 882.404 116.222L876.921 118.658C878.216 121.572 879.67 124.695 881.282 128.027L886.683 125.413ZM882.42 116.258C881.156 113.31 879.783 109.929 878.299 106.113L872.706 108.287C874.209 112.151 875.609 115.597 876.905 118.622L882.42 116.258ZM875.009 104.241L874.049 104.401L875.036 110.319L875.996 110.159L875.009 104.241ZM871.551 107.582C871.972 113.265 872.183 119.058 872.183 124.96H878.183C878.183 118.915 877.967 112.975 877.534 107.138L871.551 107.582ZM872.183 125.014C872.289 130.97 872.343 136.818 872.343 142.56H878.343C878.343 136.781 878.289 130.897 878.182 124.906L872.183 125.014ZM872.343 142.56V167.36H878.343V142.56H872.343ZM874.553 164.466C873.586 164.729 871.941 165.029 869.514 165.345L870.291 171.295C872.771 170.971 874.752 170.631 876.132 170.254L874.553 164.466ZM869.497 165.348C867.284 165.649 865.072 165.8 862.863 165.8V171.8C865.346 171.8 867.828 171.631 870.308 171.292L869.497 165.348ZM862.863 165.8C860.646 165.8 858.746 165.648 857.144 165.366L856.101 171.274C858.126 171.632 860.386 171.8 862.863 171.8V165.8ZM857.144 165.366C855.729 165.116 854.741 164.65 854.042 164.078L850.243 168.722C851.891 170.07 853.89 170.884 856.101 171.274L857.144 165.366ZM854.042 164.078C853.313 163.481 852.686 162.64 852.208 161.446L846.637 163.674C847.439 165.68 848.626 167.399 850.243 168.722L854.042 164.078ZM852.231 161.507C851.762 160.254 851.463 158.458 851.463 156H845.463C845.463 158.875 845.803 161.452 846.614 163.613L852.231 161.507ZM851.463 156V76H845.463V156H851.463ZM850.92 77.7204C851.966 76.2257 853.671 74.9498 856.32 74.0361L854.365 68.3639C850.828 69.5835 847.945 71.5076 846.005 74.2796L850.92 77.7204ZM856.32 74.0361C859.076 73.0859 862.05 72.6 865.263 72.6V66.6C861.435 66.6 857.796 67.1808 854.365 68.3639L856.32 74.0361ZM865.263 72.6C868.878 72.6 872.263 73.1852 875.437 74.3394L877.488 68.7006C873.622 67.2948 869.54 66.6 865.263 66.6V72.6ZM875.539 74.3743C878.19 75.2319 880.526 77.3007 882.406 81.1553L887.799 78.5247C885.412 73.6326 881.988 70.1547 877.386 68.6657L875.539 74.3743ZM882.414 81.171L898.414 113.491L903.791 110.829L887.791 78.509L882.414 81.171ZM898.402 113.467C899.985 116.737 901.405 119.842 902.665 122.782L908.18 120.418C906.88 117.385 905.42 114.196 903.803 110.853L898.402 113.467ZM902.681 122.818C903.937 125.644 905.305 128.959 906.786 132.767L912.379 130.593C910.873 126.721 909.468 123.316 908.164 120.382L902.681 122.818ZM910.171 134.622L910.971 134.462L909.794 128.578L908.994 128.738L910.171 134.622ZM913.374 131.298C912.952 125.594 912.688 119.889 912.582 114.184L906.583 114.296C906.691 120.111 906.96 125.926 907.391 131.742L913.374 131.298ZM912.582 114.184C912.476 108.443 912.423 102.701 912.423 96.96H906.423C906.423 102.739 906.476 108.517 906.583 114.296L912.582 114.184ZM912.423 96.96V71.04H906.423V96.96H912.423ZM910.212 73.9343C911.191 73.6673 912.794 73.368 915.108 73.0525L914.297 67.1075C911.918 67.4319 910.001 67.7727 908.633 68.1457L910.212 73.9343ZM915.091 73.0548C917.422 72.7507 919.692 72.6 921.903 72.6V66.6C919.419 66.6 916.89 66.7693 914.314 67.1052L915.091 73.0548ZM921.903 72.6C926.307 72.6 929.171 73.4136 930.909 74.6227L934.336 69.6973C931.167 67.493 926.885 66.6 921.903 66.6V72.6ZM930.984 74.6728C932.094 75.3966 933.303 77.4047 933.303 82.4H939.303C939.303 76.942 938.058 72.1234 934.261 69.6472L930.984 74.6728ZM933.303 82.4V164.64H939.303V82.4H933.303Z" fill="#794514"/>
</svg>
