<svg width="947" height="160" viewBox="0 0 947 160" fill="none" xmlns="http://www.w3.org/2000/svg">
<path d="M150.2 12.559C134.787 2.93245 117.872 16.5349 111.342 24.5394C134.485 41.3108 150.748 54.8695 155.986 59.5525C161.015 58.9319 165.014 50.7904 166.385 46.7973C171.353 27.0036 157.665 15.7244 150.2 12.559Z" fill="black" stroke="black" stroke-width="5"/>
<path d="M21.7999 12.559C37.2129 2.93246 54.1276 16.5349 60.6583 24.5395C37.5148 41.3108 21.2521 54.8696 16.0138 59.5525C10.9855 58.9319 6.98588 50.7904 5.61462 46.7973C0.647094 27.0036 14.335 15.7244 21.7999 12.559Z" fill="black" stroke="black" stroke-width="5"/>
<path d="M170.223 90.6504C170.223 127.839 132.768 158.5 85.8615 158.5C38.9548 158.5 1.5 127.839 1.5 90.6504C1.5 53.4614 38.9548 22.8007 85.8615 22.8007C132.768 22.8007 170.223 53.4614 170.223 90.6504Z" fill="#E9994D" stroke="#794514" stroke-width="3"/>
<path d="M59.6323 156.04C168.721 140.486 173.076 85.1266 158.213 54.0242C180.069 85.4867 167.32 115.568 158.213 126.676C125.55 163.903 78.8829 161.763 59.6323 156.04Z" fill="#CD8A49"/>
<path d="M98.4705 90.6504C93.667 88.2486 81.8986 85.1865 73.2524 92.1514C73.7528 95.2537 76.855 101.578 85.261 102.059C90.2646 101.858 99.9115 99.2966 98.4705 90.6504Z" fill="black"/>
<path d="M89.464 90.3502C87.1624 89.7497 81.4783 89.0893 77.1552 91.2508C79.2567 92.1514 84.6606 93.2322 89.464 90.3502Z" fill="white"/>
<path d="M109.947 58.7914C115.05 57.8907 127.299 58.7914 135.465 69.5991C139.068 74.8029 145.972 87.2518 144.772 95.4176C144.772 100.321 143.15 111.089 136.666 114.932C133.764 117.133 125.918 119.735 117.752 112.53C116.151 111.129 112.949 106.946 112.949 101.422C111.748 96.9187 107.605 85.8107 100.64 77.4047C99.0389 72.6013 98.6586 62.1538 109.947 58.7914Z" fill="#A8682B"/>
<ellipse rx="8.59257" ry="13.3243" transform="matrix(-0.970131 0.242583 0.242583 0.970131 121.795 84.0094)" fill="black"/>
<circle r="4.20301" transform="matrix(-1 0 0 1 121.355 78.0051)" fill="white"/>
<circle r="2.40172" transform="matrix(-1 0 0 1 124.957 89.4133)" fill="#4B4D93"/>
<path d="M61.3823 59.1278C56.2786 58.2272 44.0299 59.1278 35.864 69.9356C32.2615 75.1393 25.3565 87.5882 26.5574 95.754C26.5574 100.658 28.1785 111.425 34.6632 115.268C37.5652 117.47 45.4109 120.071 53.5767 112.866C55.1779 111.465 58.3801 107.282 58.3801 101.758C59.581 97.2551 63.724 86.1472 70.689 77.7411C72.2901 72.9377 72.6704 62.4902 61.3823 59.1278Z" fill="#A8682B"/>
<ellipse cx="49.5337" cy="84.3459" rx="8.59257" ry="13.3243" transform="rotate(14.0391 49.5337 84.3459)" fill="black"/>
<circle cx="49.9741" cy="78.3416" r="4.20301" fill="white"/>
<circle cx="46.3716" cy="89.7497" r="2.40172" fill="#4B4D93"/>
<path d="M73.5526 114.367C80.5176 114.608 84.0602 107.663 84.9608 104.16C86.1617 108.063 90.2446 115.568 96.9694 114.367C98.4409 114.662 100.903 114.464 102.974 112.688C104.895 124.314 100.772 130.06 98.4705 131.48C93.667 135.082 86.662 134.582 83.76 133.881C73.1924 130.519 72.5519 119.471 73.5526 114.367Z" fill="#FFAEAE"/>
<path d="M73.5526 114.367C80.5176 114.608 84.0602 107.663 84.9608 104.16C86.1617 108.063 90.2446 115.568 96.9694 114.367C98.4409 114.662 100.903 114.464 102.974 112.688M73.5526 114.367C71.7514 114.768 67.7285 113.707 66.0473 106.262M73.5526 114.367C72.5519 119.471 73.1924 130.519 83.76 133.881C86.662 134.582 93.667 135.082 98.4705 131.48C100.772 130.06 104.895 124.314 102.974 112.688M106.276 106.262C105.683 109.427 104.424 111.444 102.974 112.688" stroke="black" stroke-width="5"/>
<circle cx="43.8314" cy="41.1149" r="1.20086" fill="#F1C290"/>
<circle cx="28.2202" cy="44.7175" r="1.20086" fill="#F1C290"/>
<circle cx="46.8335" cy="33.3093" r="1.20086" fill="#F1C290"/>
<circle cx="37.2266" cy="38.1128" r="1.20086" fill="#F1C290"/>
<circle cx="55.2395" cy="44.7175" r="1.20086" fill="#F1C290"/>
<circle cx="55.2395" cy="30.9076" r="1.20086" fill="#F1C290"/>
<circle cx="21.015" cy="66.333" r="1.20086" fill="#F1C290"/>
<circle cx="21.015" cy="53.7239" r="1.20086" fill="#F1C290"/>
<circle cx="52.8378" cy="38.7132" r="1.20086" fill="#F1C290"/>
<circle cx="30.6219" cy="56.7261" r="1.20086" fill="#F1C290"/>
<circle cx="45.0322" cy="51.9226" r="1.20086" fill="#F1C290"/>
<circle cx="35.4253" cy="47.1192" r="1.20086" fill="#F1C290"/>
<path d="M81.3582 20.0999V2.08698L92.4662 7.19063C87.4226 8.15132 86.3618 16.1971 86.4619 20.0999L108.077 24.0027L90.6649 25.804L96.6692 36.9119L84.3604 29.4065L74.1531 36.9119L78.3561 25.804L63.6455 24.0027L81.3582 20.0999Z" fill="#7EAF67" stroke="#407646" stroke-width="2"/>
<path d="M235.72 82C240.2 82 243.613 80.9867 245.96 78.96C248.413 76.8267 249.64 73.6267 249.64 69.36C249.64 65.3067 248.36 62.2133 245.8 60.08C243.347 57.84 239.72 56.72 234.92 56.72C233.213 56.72 231.773 56.7733 230.6 56.88C229.533 56.88 228.413 56.9867 227.24 57.2V82H235.72ZM227.4 133.36C226.227 133.68 224.36 134 221.8 134.32C219.347 134.64 216.893 134.8 214.44 134.8C211.987 134.8 209.8 134.587 207.88 134.16C206.067 133.84 204.52 133.2 203.24 132.24C201.96 131.28 201 129.947 200.36 128.24C199.72 126.533 199.4 124.293 199.4 121.52V46.16C199.4 43.92 199.987 42.2133 201.16 41.04C202.44 39.76 204.147 38.7467 206.28 38C209.907 36.72 214.013 35.8133 218.6 35.28C223.293 34.64 227.987 34.32 232.68 34.32C247.4 34.32 258.653 37.4667 266.44 43.76C274.227 50.0533 278.12 58.5867 278.12 69.36C278.12 74.5867 277.267 79.3333 275.56 83.6C273.96 87.76 271.507 91.3867 268.2 94.48C265 97.4667 260.893 99.8133 255.88 101.52C250.973 103.12 245.267 103.92 238.76 103.92H227.4V133.36ZM308.165 39.92C309.978 38.8533 312.698 37.84 316.325 36.88C320.058 35.92 323.792 35.44 327.525 35.44C332.858 35.44 337.552 36.24 341.605 37.84C345.765 39.3333 348.432 41.7333 349.605 45.04C351.525 50.5867 353.605 57.04 355.845 64.4C358.085 71.76 360.325 79.3867 362.565 87.28C364.805 95.0667 366.992 102.8 369.125 110.48C371.258 118.053 373.125 124.773 374.725 130.64C373.445 132.133 371.525 133.307 368.965 134.16C366.405 135.12 363.365 135.6 359.845 135.6C357.285 135.6 355.098 135.387 353.285 134.96C351.578 134.533 350.138 133.893 348.965 133.04C347.898 132.187 346.992 131.067 346.245 129.68C345.605 128.293 345.018 126.693 344.485 124.88L341.605 113.84H312.645C311.792 117.04 310.938 120.347 310.085 123.76C309.232 127.173 308.378 130.48 307.525 133.68C306.032 134.213 304.432 134.64 302.725 134.96C301.125 135.387 299.152 135.6 296.805 135.6C291.365 135.6 287.312 134.693 284.645 132.88C282.085 130.96 280.805 128.347 280.805 125.04C280.805 123.547 281.018 122.053 281.445 120.56C281.872 119.067 282.352 117.307 282.885 115.28C283.632 112.4 284.645 108.827 285.925 104.56C287.312 100.293 288.805 95.7067 290.405 90.8C292.005 85.7867 293.712 80.6667 295.525 75.44C297.338 70.2133 299.045 65.3067 300.645 60.72C302.245 56.0267 303.685 51.8667 304.965 48.24C306.352 44.6133 307.418 41.84 308.165 39.92ZM327.365 60.56C325.872 65.04 324.165 70.0533 322.245 75.6C320.432 81.04 318.778 86.5867 317.285 92.24H337.125C335.632 86.48 334.085 80.88 332.485 75.44C330.992 69.8933 329.605 64.9333 328.325 60.56H327.365ZM475.678 130.64C474.184 132.133 471.998 133.253 469.118 134C466.344 134.853 462.984 135.28 459.038 135.28C455.091 135.28 451.358 134.693 447.838 133.52C444.318 132.347 441.438 129.52 439.198 125.04L423.358 92.72C421.758 89.4133 420.318 86.32 419.038 83.44C417.758 80.4533 416.371 77.04 414.878 73.2L413.918 73.36C414.344 79.12 414.558 84.9867 414.558 90.96C414.664 96.9333 414.718 102.8 414.718 108.56V133.36C413.544 133.68 411.731 134 409.278 134.32C406.931 134.64 404.584 134.8 402.238 134.8C399.891 134.8 397.811 134.64 395.998 134.32C394.184 134 392.691 133.36 391.518 132.4C390.344 131.44 389.438 130.16 388.798 128.56C388.158 126.853 387.838 124.667 387.838 122V42C389.331 39.8667 391.624 38.2667 394.718 37.2C397.811 36.1333 401.118 35.6 404.638 35.6C408.584 35.6 412.318 36.24 415.838 37.52C419.464 38.6933 422.344 41.4667 424.477 45.84L440.478 78.16C442.078 81.4667 443.518 84.6133 444.798 87.6C446.078 90.48 447.464 93.84 448.958 97.68L449.758 97.52C449.331 91.76 449.064 86 448.958 80.24C448.851 74.48 448.798 68.72 448.798 62.96V37.04C449.971 36.72 451.731 36.4 454.078 36.08C456.531 35.76 458.931 35.6 461.278 35.6C465.971 35.6 469.544 36.4533 471.998 38.16C474.451 39.76 475.678 43.1733 475.678 48.4V130.64ZM524.271 113.2C525.445 113.413 526.885 113.627 528.591 113.84C530.298 113.947 531.898 114 533.391 114C537.018 114 540.325 113.467 543.311 112.4C546.405 111.333 549.018 109.68 551.151 107.44C553.391 105.2 555.098 102.32 556.271 98.8C557.551 95.1733 558.191 90.8533 558.191 85.84C558.191 76.24 555.951 69.04 551.471 64.24C546.991 59.3333 541.018 56.88 533.551 56.88C532.058 56.88 530.511 56.9333 528.911 57.04C527.418 57.1467 525.871 57.3067 524.271 57.52V113.2ZM533.231 136.56C531.418 136.56 529.338 136.507 526.991 136.4C524.645 136.293 522.191 136.08 519.631 135.76C517.178 135.44 514.671 135.013 512.111 134.48C509.658 134.053 507.365 133.413 505.231 132.56C499.365 130.32 496.431 126.427 496.431 120.88V46.16C496.431 43.92 497.018 42.2133 498.191 41.04C499.471 39.76 501.178 38.7467 503.311 38C507.898 36.5067 512.751 35.5467 517.871 35.12C522.991 34.5867 527.578 34.32 531.631 34.32C539.951 34.32 547.471 35.3333 554.191 37.36C561.018 39.3867 566.831 42.5333 571.631 46.8C576.538 50.96 580.325 56.24 582.991 62.64C585.658 69.04 586.991 76.6133 586.991 85.36C586.991 93.8933 585.711 101.36 583.151 107.76C580.591 114.053 576.911 119.387 572.111 123.76C567.418 128.027 561.765 131.227 555.151 133.36C548.538 135.493 541.231 136.56 533.231 136.56ZM622.54 39.92C624.353 38.8533 627.073 37.84 630.7 36.88C634.433 35.92 638.167 35.44 641.9 35.44C647.233 35.44 651.927 36.24 655.98 37.84C660.14 39.3333 662.807 41.7333 663.98 45.04C665.9 50.5867 667.98 57.04 670.22 64.4C672.46 71.76 674.7 79.3867 676.94 87.28C679.18 95.0667 681.367 102.8 683.5 110.48C685.633 118.053 687.5 124.773 689.1 130.64C687.82 132.133 685.9 133.307 683.34 134.16C680.78 135.12 677.74 135.6 674.22 135.6C671.66 135.6 669.473 135.387 667.66 134.96C665.953 134.533 664.513 133.893 663.34 133.04C662.273 132.187 661.367 131.067 660.62 129.68C659.98 128.293 659.393 126.693 658.86 124.88L655.98 113.84H627.02C626.167 117.04 625.313 120.347 624.46 123.76C623.607 127.173 622.753 130.48 621.9 133.68C620.407 134.213 618.807 134.64 617.1 134.96C615.5 135.387 613.527 135.6 611.18 135.6C605.74 135.6 601.687 134.693 599.02 132.88C596.46 130.96 595.18 128.347 595.18 125.04C595.18 123.547 595.393 122.053 595.82 120.56C596.247 119.067 596.727 117.307 597.26 115.28C598.007 112.4 599.02 108.827 600.3 104.56C601.687 100.293 603.18 95.7067 604.78 90.8C606.38 85.7867 608.087 80.6667 609.9 75.44C611.713 70.2133 613.42 65.3067 615.02 60.72C616.62 56.0267 618.06 51.8667 619.34 48.24C620.727 44.6133 621.793 41.84 622.54 39.92ZM641.74 60.56C640.247 65.04 638.54 70.0533 636.62 75.6C634.807 81.04 633.153 86.5867 631.66 92.24H651.5C650.007 86.48 648.46 80.88 646.86 75.44C645.367 69.8933 643.98 64.9333 642.7 60.56H641.74ZM730.053 102.64V133.36C728.879 133.68 727.013 134 724.453 134.32C721.999 134.64 719.546 134.8 717.093 134.8C714.639 134.8 712.453 134.587 710.533 134.16C708.719 133.84 707.173 133.2 705.893 132.24C704.719 131.28 703.813 129.947 703.173 128.24C702.533 126.533 702.213 124.293 702.213 121.52V46.16C702.213 43.92 702.799 42.2133 703.973 41.04C705.253 39.76 706.959 38.7467 709.093 38C712.719 36.72 716.933 35.8133 721.733 35.28C726.533 34.64 731.653 34.32 737.093 34.32C751.813 34.32 762.906 37.4133 770.373 43.6C777.839 49.7867 781.573 58.16 781.573 68.72C781.573 75.3333 779.866 80.9867 776.453 85.68C773.039 90.3733 768.986 94 764.293 96.56C768.133 101.787 771.919 106.693 775.653 111.28C779.386 115.867 782.319 120.027 784.453 123.76C783.386 127.493 781.413 130.373 778.533 132.4C775.759 134.32 772.613 135.28 769.093 135.28C766.746 135.28 764.719 135.013 763.013 134.48C761.306 133.947 759.813 133.2 758.533 132.24C757.253 131.28 756.079 130.107 755.013 128.72C753.946 127.333 752.933 125.84 751.973 124.24L738.533 102.64H730.053ZM740.133 81.36C744.186 81.36 747.386 80.3467 749.733 78.32C752.079 76.1867 753.253 73.0933 753.253 69.04C753.253 64.9867 751.919 61.9467 749.253 59.92C746.693 57.7867 742.586 56.72 736.933 56.72C735.333 56.72 734.053 56.7733 733.093 56.88C732.133 56.9867 731.066 57.1467 729.893 57.36V81.36H740.133ZM827.713 133.36C826.539 133.68 824.673 134 822.113 134.32C819.659 134.64 817.206 134.8 814.753 134.8C812.299 134.8 810.113 134.587 808.193 134.16C806.379 133.84 804.833 133.2 803.553 132.24C802.273 131.28 801.313 129.947 800.673 128.24C800.033 126.533 799.713 124.293 799.713 121.52V37.04C800.886 36.8267 802.753 36.56 805.313 36.24C807.873 35.8133 810.326 35.6 812.673 35.6C815.126 35.6 817.259 35.8133 819.073 36.24C820.993 36.56 822.593 37.2 823.873 38.16C825.153 39.12 826.113 40.4533 826.753 42.16C827.393 43.8667 827.713 46.1067 827.713 48.88V133.36ZM936.303 130.64C934.809 132.133 932.623 133.253 929.743 134C926.969 134.853 923.609 135.28 919.663 135.28C915.716 135.28 911.983 134.693 908.463 133.52C904.943 132.347 902.063 129.52 899.823 125.04L883.983 92.72C882.383 89.4133 880.943 86.32 879.663 83.44C878.383 80.4533 876.996 77.04 875.503 73.2L874.543 73.36C874.969 79.12 875.183 84.9867 875.183 90.96C875.289 96.9333 875.343 102.8 875.343 108.56V133.36C874.169 133.68 872.356 134 869.903 134.32C867.556 134.64 865.209 134.8 862.863 134.8C860.516 134.8 858.436 134.64 856.623 134.32C854.809 134 853.316 133.36 852.143 132.4C850.969 131.44 850.063 130.16 849.423 128.56C848.783 126.853 848.463 124.667 848.463 122V42C849.956 39.8667 852.249 38.2667 855.343 37.2C858.436 36.1333 861.743 35.6 865.263 35.6C869.209 35.6 872.943 36.24 876.463 37.52C880.089 38.6933 882.969 41.4667 885.102 45.84L901.103 78.16C902.703 81.4667 904.143 84.6133 905.423 87.6C906.703 90.48 908.089 93.84 909.583 97.68L910.383 97.52C909.956 91.76 909.689 86 909.583 80.24C909.476 74.48 909.423 68.72 909.423 62.96V37.04C910.596 36.72 912.356 36.4 914.703 36.08C917.156 35.76 919.556 35.6 921.903 35.6C926.596 35.6 930.169 36.4533 932.623 38.16C935.076 39.76 936.303 43.1733 936.303 48.4V130.64Z" fill="#F7C99D"/>
<path d="M245.96 78.96L247.921 81.2305L247.929 81.2238L245.96 78.96ZM245.8 60.08L243.777 62.2955L243.827 62.3412L243.879 62.3847L245.8 60.08ZM230.6 56.88V59.88H230.736L230.872 59.8677L230.6 56.88ZM227.24 57.2L226.703 54.2484L224.24 54.6963V57.2H227.24ZM227.24 82H224.24V85H227.24V82ZM227.4 133.36L228.189 136.254L230.4 135.651V133.36H227.4ZM221.8 134.32L221.428 131.343L221.42 131.344L221.412 131.345L221.8 134.32ZM207.88 134.16L208.531 131.231L208.466 131.217L208.401 131.206L207.88 134.16ZM203.24 132.24L201.44 134.64L201.44 134.64L203.24 132.24ZM200.36 128.24L197.551 129.293L197.551 129.293L200.36 128.24ZM201.16 41.04L203.281 43.1613L203.281 43.1613L201.16 41.04ZM206.28 38L207.271 40.8316L207.278 40.829L206.28 38ZM218.6 35.28L218.947 38.2599L218.976 38.2565L219.005 38.2525L218.6 35.28ZM266.44 43.76L264.554 46.0932L266.44 43.76ZM275.56 83.6L272.775 82.4858L272.767 82.5044L272.76 82.5231L275.56 83.6ZM268.2 94.48L270.247 96.6732L270.249 96.6708L268.2 94.48ZM255.88 101.52L256.81 104.372L256.828 104.366L256.847 104.36L255.88 101.52ZM227.4 103.92V100.92H224.4V103.92H227.4ZM235.72 85C240.606 85 244.831 83.899 247.921 81.2305L243.999 76.6895C242.396 78.0743 239.794 79 235.72 79V85ZM247.929 81.2238C251.227 78.3555 252.64 74.2067 252.64 69.36H246.64C246.64 73.0466 245.6 75.2979 243.991 76.6962L247.929 81.2238ZM252.64 69.36C252.64 64.6279 251.112 60.6015 247.721 57.7753L243.879 62.3847C245.608 63.8252 246.64 65.9854 246.64 69.36H252.64ZM247.823 57.8645C244.614 54.9347 240.139 53.72 234.92 53.72V59.72C239.301 59.72 242.079 60.7453 243.777 62.2955L247.823 57.8645ZM234.92 53.72C233.159 53.72 231.622 53.7747 230.328 53.8923L230.872 59.8677C231.925 59.772 233.268 59.72 234.92 59.72V53.72ZM230.6 53.88C229.334 53.88 228.033 54.0066 226.703 54.2484L227.777 60.1516C228.793 59.9668 229.733 59.88 230.6 59.88V53.88ZM224.24 57.2V82H230.24V57.2H224.24ZM227.24 85H235.72V79H227.24V85ZM226.611 130.466C225.655 130.726 223.967 131.026 221.428 131.343L222.172 137.297C224.753 136.974 226.798 136.634 228.189 136.254L226.611 130.466ZM221.412 131.345C219.086 131.649 216.762 131.8 214.44 131.8V137.8C217.024 137.8 219.607 137.631 222.188 137.295L221.412 131.345ZM214.44 131.8C212.154 131.8 210.192 131.601 208.531 131.231L207.229 137.089C209.408 137.573 211.819 137.8 214.44 137.8V131.8ZM208.401 131.206C206.982 130.955 205.89 130.478 205.04 129.84L201.44 134.64C203.15 135.922 205.152 136.725 207.359 137.114L208.401 131.206ZM205.04 129.84C204.279 129.269 203.637 128.434 203.169 127.187L197.551 129.293C198.363 131.459 199.641 133.291 201.44 134.64L205.04 129.84ZM203.169 127.187C202.703 125.945 202.4 124.102 202.4 121.52H196.4C196.4 124.485 196.737 127.122 197.551 129.293L203.169 127.187ZM202.4 121.52V46.16H196.4V121.52H202.4ZM202.4 46.16C202.4 44.4293 202.845 43.5976 203.281 43.1613L199.039 38.9187C197.128 40.8291 196.4 43.4107 196.4 46.16H202.4ZM203.281 43.1613C204.174 42.2691 205.46 41.4655 207.271 40.8316L205.289 35.1684C202.833 36.0279 200.706 37.2509 199.039 38.9187L203.281 43.1613ZM207.278 40.829C210.657 39.6365 214.539 38.7724 218.947 38.2599L218.253 32.3001C213.487 32.8543 209.156 33.8035 205.282 35.171L207.278 40.829ZM219.005 38.2525C223.566 37.6306 228.123 37.32 232.68 37.32V31.32C227.85 31.32 223.021 31.6494 218.195 32.3075L219.005 38.2525ZM232.68 37.32C247.026 37.32 257.502 40.3934 264.554 46.0932L268.326 41.4268C259.805 34.5399 247.774 31.32 232.68 31.32V37.32ZM264.554 46.0932C271.577 51.7691 275.12 59.4138 275.12 69.36H281.12C281.12 57.7595 276.876 48.3375 268.326 41.4268L264.554 46.0932ZM275.12 69.36C275.12 74.257 274.321 78.6188 272.775 82.4858L278.345 84.7142C280.212 80.0478 281.12 74.9163 281.12 69.36H275.12ZM272.76 82.5231C271.325 86.2529 269.131 89.5005 266.151 92.2892L270.249 96.6708C273.882 93.2728 276.595 89.2671 278.36 84.6769L272.76 82.5231ZM266.153 92.2868C263.321 94.9297 259.607 97.082 254.913 98.68L256.847 104.36C262.179 102.545 266.679 100.004 270.247 96.6732L266.153 92.2868ZM254.95 98.6678C250.41 100.148 245.029 100.92 238.76 100.92V106.92C245.504 106.92 251.537 106.092 256.81 104.372L254.95 98.6678ZM238.76 100.92H227.4V106.92H238.76V100.92ZM224.4 103.92V133.36H230.4V103.92H224.4ZM308.165 39.92L306.644 37.3342L305.746 37.8622L305.369 38.8327L308.165 39.92ZM316.325 36.88L315.578 33.9745L315.568 33.9772L315.557 33.9799L316.325 36.88ZM341.605 37.84L340.504 40.6305L340.547 40.6477L340.591 40.6636L341.605 37.84ZM349.605 45.04L352.44 44.0587L352.436 44.0477L352.432 44.0368L349.605 45.04ZM355.845 64.4L358.715 63.5265L358.715 63.5265L355.845 64.4ZM362.565 87.28L359.679 88.099L359.682 88.1094L362.565 87.28ZM369.125 110.48L366.234 111.283L366.237 111.293L369.125 110.48ZM374.725 130.64L377.003 132.592L378.038 131.385L377.619 129.851L374.725 130.64ZM368.965 134.16L368.016 131.314L367.964 131.332L367.912 131.351L368.965 134.16ZM353.285 134.96L352.557 137.87L352.578 137.875L352.598 137.88L353.285 134.96ZM348.965 133.04L347.091 135.383L347.145 135.426L347.2 135.466L348.965 133.04ZM346.245 129.68L343.521 130.937L343.56 131.021L343.604 131.102L346.245 129.68ZM344.485 124.88L341.582 125.637L341.594 125.682L341.607 125.726L344.485 124.88ZM341.605 113.84L344.508 113.083L343.923 110.84H341.605V113.84ZM312.645 113.84V110.84H310.34L309.746 113.067L312.645 113.84ZM310.085 123.76L307.175 123.032L307.175 123.032L310.085 123.76ZM307.525 133.68L308.534 136.505L310.018 135.975L310.424 134.453L307.525 133.68ZM302.725 134.96L302.172 132.011L302.061 132.032L301.952 132.061L302.725 134.96ZM284.645 132.88L282.845 135.28L282.901 135.322L282.958 135.361L284.645 132.88ZM281.445 120.56L278.56 119.736L278.56 119.736L281.445 120.56ZM282.885 115.28L285.786 116.043L285.789 116.033L282.885 115.28ZM285.925 104.56L283.072 103.633L283.061 103.665L283.052 103.698L285.925 104.56ZM290.405 90.8L293.257 91.7301L293.26 91.7211L293.263 91.7121L290.405 90.8ZM295.525 75.44L292.691 74.4567L292.691 74.4567L295.525 75.44ZM300.645 60.72L303.478 61.7081L303.481 61.6981L303.485 61.688L300.645 60.72ZM304.965 48.24L302.163 47.1686L302.149 47.2049L302.136 47.2415L304.965 48.24ZM327.365 60.56V57.56H325.203L324.519 59.6113L327.365 60.56ZM322.245 75.6L319.41 74.6187L319.404 74.635L319.399 74.6513L322.245 75.6ZM317.285 92.24L314.384 91.4738L313.39 95.24H317.285V92.24ZM337.125 92.24V95.24H341.002L340.029 91.4871L337.125 92.24ZM332.485 75.44L329.588 76.2199L329.597 76.2533L329.607 76.2865L332.485 75.44ZM328.325 60.56L331.204 59.7173L330.573 57.56H328.325V60.56ZM309.686 42.5058C311.148 41.6457 313.558 40.7157 317.093 39.7801L315.557 33.9799C311.838 34.9643 308.808 36.061 306.644 37.3342L309.686 42.5058ZM317.072 39.7855C320.569 38.8862 324.052 38.44 327.525 38.44V32.44C323.532 32.44 319.547 32.9538 315.578 33.9745L317.072 39.7855ZM327.525 38.44C332.563 38.44 336.87 39.1961 340.504 40.6305L342.707 35.0495C338.234 33.2839 333.154 32.44 327.525 32.44V38.44ZM340.591 40.6636C344.144 41.9389 345.981 43.7985 346.778 46.0432L352.432 44.0368C350.882 39.6681 347.386 36.7278 342.619 35.0164L340.591 40.6636ZM346.77 46.0213C348.675 51.5233 350.743 57.9393 352.975 65.2735L358.715 63.5265C356.467 56.1407 354.375 49.65 352.44 44.0587L346.77 46.0213ZM352.975 65.2735C355.209 72.6142 357.444 80.2227 359.679 88.099L365.451 86.461C363.206 78.5506 360.961 70.9058 358.715 63.5265L352.975 65.2735ZM359.682 88.1094C361.919 95.8874 364.104 103.612 366.234 111.283L372.016 109.677C369.88 101.988 367.691 94.2459 365.448 86.4506L359.682 88.1094ZM366.237 111.293C368.369 118.861 370.233 125.573 371.831 131.429L377.619 129.851C376.017 123.974 374.148 117.246 372.013 109.667L366.237 111.293ZM372.447 128.688C371.629 129.642 370.245 130.571 368.016 131.314L369.914 137.006C372.805 136.042 375.261 134.625 377.003 132.592L372.447 128.688ZM367.912 131.351C365.77 132.154 363.104 132.6 359.845 132.6V138.6C363.626 138.6 367.04 138.086 370.018 136.969L367.912 131.351ZM359.845 132.6C357.437 132.6 355.494 132.398 353.972 132.04L352.598 137.88C354.702 138.375 357.133 138.6 359.845 138.6V132.6ZM354.013 132.05C352.602 131.697 351.533 131.198 350.73 130.614L347.2 135.466C348.744 136.589 350.555 137.37 352.557 137.87L354.013 132.05ZM350.839 130.697C350.132 130.132 349.471 129.343 348.886 128.258L343.604 131.102C344.513 132.79 345.665 134.242 347.091 135.383L350.839 130.697ZM348.969 128.423C348.403 127.196 347.864 125.738 347.363 124.034L341.607 125.726C342.172 127.649 342.807 129.391 343.521 130.937L348.969 128.423ZM347.388 124.123L344.508 113.083L338.702 114.597L341.582 125.637L347.388 124.123ZM341.605 110.84H312.645V116.84H341.605V110.84ZM309.746 113.067C308.889 116.283 308.031 119.605 307.175 123.032L312.995 124.488C313.845 121.089 314.695 117.797 315.544 114.613L309.746 113.067ZM307.175 123.032C306.325 126.431 305.475 129.723 304.626 132.907L310.424 134.453C311.281 131.237 312.139 127.915 312.995 124.488L307.175 123.032ZM306.516 130.855C305.184 131.33 303.738 131.718 302.172 132.011L303.278 137.909C305.125 137.562 306.879 137.096 308.534 136.505L306.516 130.855ZM301.952 132.061C300.685 132.399 298.99 132.6 296.805 132.6V138.6C299.314 138.6 301.565 138.374 303.498 137.859L301.952 132.061ZM296.805 132.6C291.596 132.6 288.264 131.713 286.332 130.399L282.958 135.361C286.359 137.673 291.134 138.6 296.805 138.6V132.6ZM286.445 130.48C284.67 129.148 283.805 127.439 283.805 125.04H277.805C277.805 129.254 279.5 132.772 282.845 135.28L286.445 130.48ZM283.805 125.04C283.805 123.836 283.976 122.62 284.33 121.384L278.56 119.736C278.06 121.486 277.805 123.257 277.805 125.04H283.805ZM284.33 121.384C284.764 119.865 285.249 118.084 285.786 116.043L279.984 114.517C279.454 116.529 278.98 118.268 278.56 119.736L284.33 121.384ZM285.789 116.033C286.523 113.203 287.525 109.668 288.798 105.422L283.052 103.698C281.765 107.985 280.741 111.597 279.981 114.527L285.789 116.033ZM288.778 105.487C290.164 101.222 291.657 96.6359 293.257 91.7301L287.553 89.8699C285.953 94.7774 284.459 99.365 283.072 103.633L288.778 105.487ZM293.263 91.7121C294.855 86.7238 296.554 81.6275 298.359 76.4233L292.691 74.4567C290.87 79.7058 289.155 84.8495 287.547 89.8879L293.263 91.7121ZM298.359 76.4233C300.172 71.198 301.878 66.293 303.478 61.7081L297.812 59.7319C296.212 64.3203 294.505 69.2286 292.691 74.4567L298.359 76.4233ZM303.485 61.688C305.082 57.0021 306.518 52.8526 307.794 49.2385L302.136 47.2415C300.852 50.8807 299.408 55.0512 297.805 59.752L303.485 61.688ZM307.767 49.3114C309.153 45.6863 310.217 42.9193 310.961 41.0073L305.369 38.8327C304.619 40.7607 303.55 43.5404 302.163 47.1686L307.767 49.3114ZM324.519 59.6113C323.03 64.0782 321.327 69.0804 319.41 74.6187L325.08 76.5813C327.003 71.0263 328.713 66.0018 330.211 61.5087L324.519 59.6113ZM319.399 74.6513C317.565 80.1527 315.894 85.7603 314.384 91.4738L320.186 93.0062C321.663 87.413 323.298 81.9273 325.091 76.5487L319.399 74.6513ZM317.285 95.24H337.125V89.24H317.285V95.24ZM340.029 91.4871C338.528 85.6973 336.973 80.066 335.363 74.5935L329.607 76.2865C331.197 81.694 332.735 87.2627 334.221 92.9929L340.029 91.4871ZM335.382 74.6601C333.884 69.0975 332.492 64.116 331.204 59.7173L325.446 61.4027C326.718 65.7506 328.099 70.6891 329.588 76.2199L335.382 74.6601ZM328.325 57.56H327.365V63.56H328.325V57.56ZM475.678 130.64L477.799 132.761L478.678 131.883V130.64H475.678ZM469.118 134L468.365 131.096L468.3 131.113L468.235 131.133L469.118 134ZM447.838 133.52L448.786 130.674L448.786 130.674L447.838 133.52ZM439.198 125.04L436.504 126.36L436.509 126.371L436.514 126.382L439.198 125.04ZM423.358 92.72L420.657 94.0267L420.66 94.0335L420.664 94.0403L423.358 92.72ZM419.038 83.44L416.28 84.6218L416.288 84.6401L416.296 84.6584L419.038 83.44ZM414.878 73.2L417.674 72.1127L416.79 69.8399L414.384 70.2408L414.878 73.2ZM413.918 73.36L413.424 70.4008L410.723 70.851L410.926 73.5816L413.918 73.36ZM414.558 90.96H411.558V90.9868L411.558 91.0136L414.558 90.96ZM414.718 133.36L415.507 136.254L417.718 135.651V133.36H414.718ZM409.278 134.32L408.889 131.345L408.881 131.346L408.872 131.348L409.278 134.32ZM395.998 134.32L396.519 131.366L395.998 134.32ZM391.518 132.4L393.417 130.078L391.518 132.4ZM388.798 128.56L385.989 129.613L386 129.644L386.012 129.674L388.798 128.56ZM387.838 42L385.38 40.2796L384.838 41.0543V42H387.838ZM394.718 37.2L393.74 34.3639L393.74 34.3639L394.718 37.2ZM415.838 37.52L414.812 40.3394L414.863 40.3578L414.914 40.3743L415.838 37.52ZM424.477 45.84L421.781 47.1553L421.785 47.1631L421.789 47.171L424.477 45.84ZM440.478 78.16L443.178 76.8533L443.172 76.8411L443.166 76.829L440.478 78.16ZM444.798 87.6L442.04 88.7818L442.048 88.8001L442.056 88.8184L444.798 87.6ZM448.958 97.68L446.161 98.7673L447.075 101.116L449.546 100.622L448.958 97.68ZM449.758 97.52L450.346 100.462L452.945 99.9419L452.749 97.2984L449.758 97.52ZM448.958 80.24L451.957 80.1845L451.957 80.1844L448.958 80.24ZM448.798 37.04L448.008 34.1457L445.798 34.7486V37.04H448.798ZM454.078 36.08L453.689 33.1052L453.681 33.1063L453.672 33.1075L454.078 36.08ZM471.998 38.16L470.284 40.6227L470.321 40.6483L470.359 40.6728L471.998 38.16ZM473.556 128.519C472.565 129.51 470.928 130.431 468.365 131.096L469.87 136.904C473.067 136.075 475.803 134.757 477.799 132.761L473.556 128.519ZM468.235 131.133C465.83 131.873 462.785 132.28 459.038 132.28V138.28C463.183 138.28 466.859 137.834 470 136.867L468.235 131.133ZM459.038 132.28C455.393 132.28 451.981 131.739 448.786 130.674L446.889 136.366C450.734 137.648 454.789 138.28 459.038 138.28V132.28ZM448.786 130.674C446.255 129.83 443.893 127.723 441.881 123.698L436.514 126.382C438.982 131.317 442.38 134.863 446.889 136.366L448.786 130.674ZM441.891 123.72L426.051 91.3997L420.664 94.0403L436.504 126.36L441.891 123.72ZM426.058 91.4133C424.47 88.1312 423.044 85.0676 421.779 82.2216L416.296 84.6584C417.591 87.5724 419.045 90.6955 420.657 94.0267L426.058 91.4133ZM421.795 82.2582C420.531 79.3098 419.158 75.9289 417.674 72.1127L412.081 74.2873C413.584 78.1511 414.984 81.5969 416.28 84.6218L421.795 82.2582ZM414.384 70.2408L413.424 70.4008L414.411 76.3192L415.371 76.1592L414.384 70.2408ZM410.926 73.5816C411.347 79.2654 411.558 85.0581 411.558 90.96H417.558C417.558 84.9152 417.342 78.9746 416.909 73.1384L410.926 73.5816ZM411.558 91.0136C411.664 96.9697 411.718 102.818 411.718 108.56H417.718C417.718 102.781 417.664 96.897 417.557 90.9064L411.558 91.0136ZM411.718 108.56V133.36H417.718V108.56H411.718ZM413.928 130.466C412.961 130.729 411.316 131.029 408.889 131.345L409.666 137.295C412.146 136.971 414.127 136.631 415.507 136.254L413.928 130.466ZM408.872 131.348C406.659 131.649 404.447 131.8 402.238 131.8V137.8C404.721 137.8 407.203 137.631 409.683 137.292L408.872 131.348ZM402.238 131.8C400.021 131.8 398.121 131.648 396.519 131.366L395.476 137.274C397.501 137.632 399.761 137.8 402.238 137.8V131.8ZM396.519 131.366C395.104 131.116 394.116 130.65 393.417 130.078L389.618 134.722C391.266 136.07 393.265 136.884 395.476 137.274L396.519 131.366ZM393.417 130.078C392.688 129.481 392.061 128.64 391.583 127.446L386.012 129.674C386.814 131.68 388.001 133.399 389.618 134.722L393.417 130.078ZM391.606 127.507C391.137 126.254 390.838 124.458 390.838 122H384.838C384.838 124.875 385.178 127.452 385.989 129.613L391.606 127.507ZM390.838 122V42H384.838V122H390.838ZM390.295 43.7204C391.341 42.2257 393.046 40.9498 395.695 40.0361L393.74 34.3639C390.203 35.5835 387.32 37.5076 385.38 40.2796L390.295 43.7204ZM395.695 40.0361C398.451 39.0859 401.425 38.6 404.638 38.6V32.6C400.81 32.6 397.171 33.1808 393.74 34.3639L395.695 40.0361ZM404.638 38.6C408.253 38.6 411.638 39.1852 414.812 40.3394L416.863 34.7006C412.997 33.2948 408.915 32.6 404.638 32.6V38.6ZM414.914 40.3743C417.565 41.2319 419.901 43.3007 421.781 47.1553L427.174 44.5247C424.787 39.6326 421.363 36.1547 416.761 34.6657L414.914 40.3743ZM421.789 47.171L437.789 79.491L443.166 76.829L427.166 44.509L421.789 47.171ZM437.777 79.4667C439.36 82.7373 440.78 85.8422 442.04 88.7818L447.555 86.4182C446.255 83.3845 444.795 80.196 443.178 76.8533L437.777 79.4667ZM442.056 88.8184C443.312 91.6444 444.68 94.9589 446.161 98.7673L451.754 96.5927C450.248 92.7211 448.843 89.3156 447.539 86.3816L442.056 88.8184ZM449.546 100.622L450.346 100.462L449.169 94.5783L448.369 94.7383L449.546 100.622ZM452.749 97.2984C452.327 91.5935 452.063 85.8889 451.957 80.1845L445.958 80.2955C446.066 86.1111 446.335 91.9265 446.766 97.7416L452.749 97.2984ZM451.957 80.1844C451.851 74.443 451.798 68.7015 451.798 62.96H445.798C445.798 68.7385 445.851 74.517 445.958 80.2955L451.957 80.1844ZM451.798 62.96V37.04H445.798V62.96H451.798ZM449.587 39.9343C450.566 39.6673 452.169 39.368 454.483 39.0525L453.672 33.1075C451.293 33.4319 449.376 33.7727 448.008 34.1457L449.587 39.9343ZM454.466 39.0548C456.797 38.7507 459.067 38.6 461.278 38.6V32.6C458.794 32.6 456.265 32.7693 453.689 33.1052L454.466 39.0548ZM461.278 38.6C465.682 38.6 468.546 39.4136 470.284 40.6227L473.711 35.6973C470.542 33.493 466.26 32.6 461.278 32.6V38.6ZM470.359 40.6728C471.469 41.3966 472.678 43.4047 472.678 48.4H478.678C478.678 42.942 477.433 38.1234 473.636 35.6472L470.359 40.6728ZM472.678 48.4V130.64H478.678V48.4H472.678ZM524.271 113.2H521.271V115.704L523.735 116.152L524.271 113.2ZM528.591 113.84L528.219 116.817L528.311 116.828L528.404 116.834L528.591 113.84ZM543.311 112.4L542.333 109.564L542.318 109.569L542.302 109.575L543.311 112.4ZM551.151 107.44L549.03 105.319L549.004 105.345L548.979 105.371L551.151 107.44ZM556.271 98.8L553.442 97.8015L553.434 97.8264L553.425 97.8513L556.271 98.8ZM551.471 64.24L549.256 66.2628L549.267 66.2749L549.278 66.287L551.471 64.24ZM528.911 57.04L528.712 54.0466L528.705 54.0471L528.698 54.0476L528.911 57.04ZM524.271 57.52L523.875 54.5463L521.271 54.8934V57.52H524.271ZM526.991 136.4L526.855 139.397L526.855 139.397L526.991 136.4ZM519.631 135.76L519.243 138.735L519.251 138.736L519.259 138.737L519.631 135.76ZM512.111 134.48L512.723 131.543L512.674 131.533L512.625 131.524L512.111 134.48ZM505.231 132.56L506.345 129.775L506.323 129.766L506.301 129.757L505.231 132.56ZM498.191 41.04L500.313 43.1613L500.313 43.1613L498.191 41.04ZM503.311 38L502.382 35.1474L502.351 35.1576L502.32 35.1684L503.311 38ZM517.871 35.12L518.12 38.1096L518.151 38.1071L518.182 38.1039L517.871 35.12ZM554.191 37.36L553.325 40.2322L553.337 40.2359L554.191 37.36ZM571.631 46.8L569.638 49.0422L569.664 49.0656L569.691 49.0883L571.631 46.8ZM582.991 62.64L580.222 63.7938L580.222 63.7938L582.991 62.64ZM583.151 107.76L585.93 108.89L585.933 108.882L585.937 108.874L583.151 107.76ZM572.111 123.76L574.129 125.98L574.132 125.978L572.111 123.76ZM555.151 133.36L554.23 130.505L555.151 133.36ZM523.735 116.152C524.981 116.378 526.479 116.599 528.219 116.817L528.963 110.863C527.29 110.654 525.909 110.449 524.808 110.248L523.735 116.152ZM528.404 116.834C530.164 116.944 531.827 117 533.391 117V111C531.969 111 530.431 110.949 528.778 110.846L528.404 116.834ZM533.391 117C537.313 117 540.967 116.423 544.32 115.225L542.302 109.575C539.682 110.51 536.723 111 533.391 111V117ZM544.289 115.236C547.809 114.022 550.84 112.117 553.324 109.509L548.979 105.371C547.196 107.243 545 108.644 542.333 109.564L544.289 115.236ZM553.273 109.561C555.894 106.94 557.822 103.635 559.117 99.7487L553.425 97.8513C552.374 101.005 550.889 103.46 549.03 105.319L553.273 109.561ZM559.1 99.7985C560.522 95.7704 561.191 91.0958 561.191 85.84H555.191C555.191 90.6108 554.581 94.5763 553.442 97.8015L559.1 99.7985ZM561.191 85.84C561.191 75.8271 558.859 67.7587 553.664 62.193L549.278 66.287C553.043 70.3213 555.191 76.6529 555.191 85.84H561.191ZM553.687 62.2172C548.565 56.6074 541.745 53.88 533.551 53.88V59.88C540.291 59.88 545.418 62.0592 549.256 66.2628L553.687 62.2172ZM533.551 53.88C531.987 53.88 530.373 53.9359 528.712 54.0466L529.111 60.0333C530.649 59.9308 532.129 59.88 533.551 59.88V53.88ZM528.698 54.0476C527.139 54.159 525.531 54.3255 523.875 54.5463L524.668 60.4937C526.212 60.2878 527.697 60.1344 529.125 60.0324L528.698 54.0476ZM521.271 57.52V113.2H527.271V57.52H521.271ZM533.231 133.56C531.474 133.56 529.441 133.508 527.127 133.403L526.855 139.397C529.235 139.505 531.362 139.56 533.231 139.56V133.56ZM527.127 133.403C524.867 133.3 522.493 133.094 520.003 132.783L519.259 138.737C521.89 139.066 524.422 139.286 526.855 139.397L527.127 133.403ZM520.019 132.785C517.645 132.476 515.213 132.062 512.723 131.543L511.499 137.417C514.129 137.965 516.711 138.404 519.243 138.735L520.019 132.785ZM512.625 131.524C510.36 131.13 508.27 130.544 506.345 129.775L504.117 135.345C506.459 136.282 508.955 136.976 511.597 137.436L512.625 131.524ZM506.301 129.757C503.745 128.781 502.07 127.538 501.027 126.155C500.006 124.799 499.431 123.096 499.431 120.88H493.431C493.431 124.211 494.324 127.228 496.235 129.765C498.126 132.275 500.851 134.099 504.161 135.363L506.301 129.757ZM499.431 120.88V46.16H493.431V120.88H499.431ZM499.431 46.16C499.431 44.4293 499.876 43.5976 500.313 43.1613L496.07 38.9187C494.16 40.8291 493.431 43.4107 493.431 46.16H499.431ZM500.313 43.1613C501.205 42.2691 502.491 41.4655 504.302 40.8316L502.32 35.1684C499.865 36.0279 497.738 37.2509 496.07 38.9187L500.313 43.1613ZM504.24 40.8526C508.592 39.4356 513.217 38.5183 518.12 38.1096L517.622 32.1304C512.286 32.575 507.203 33.5778 502.382 35.1474L504.24 40.8526ZM518.182 38.1039C523.225 37.5786 527.705 37.32 531.631 37.32V31.32C527.451 31.32 522.758 31.5948 517.56 32.1361L518.182 38.1039ZM531.631 37.32C539.711 37.32 546.932 38.3043 553.325 40.2322L555.057 34.4878C548.01 32.3624 540.192 31.32 531.631 31.32V37.32ZM553.337 40.2359C559.789 42.1512 565.201 45.0982 569.638 49.0422L573.624 44.5578C568.461 39.9684 562.247 36.6221 555.045 34.4841L553.337 40.2359ZM569.691 49.0883C574.208 52.9175 577.724 57.7974 580.222 63.7938L585.76 61.4862C582.926 54.6826 578.868 49.0024 573.571 44.5117L569.691 49.0883ZM580.222 63.7938C582.702 69.7462 583.991 76.9096 583.991 85.36H589.991C589.991 76.317 588.614 68.3338 585.76 61.4862L580.222 63.7938ZM583.991 85.36C583.991 93.5995 582.755 100.674 580.366 106.646L585.937 108.874C588.668 102.046 589.991 94.1872 589.991 85.36H583.991ZM580.372 106.63C577.973 112.528 574.545 117.484 570.091 121.542L574.132 125.978C579.278 121.289 583.21 115.578 585.93 108.89L580.372 106.63ZM570.093 121.54C565.745 125.493 560.476 128.49 554.23 130.505L556.072 136.215C563.053 133.963 569.091 130.56 574.129 125.98L570.093 121.54ZM554.23 130.505C547.956 132.529 540.965 133.56 533.231 133.56V139.56C541.498 139.56 549.12 138.458 556.072 136.215L554.23 130.505ZM622.54 39.92L621.019 37.3342L620.121 37.8622L619.744 38.8327L622.54 39.92ZM630.7 36.88L629.953 33.9745L629.943 33.9772L629.932 33.9799L630.7 36.88ZM655.98 37.84L654.879 40.6305L654.922 40.6477L654.966 40.6636L655.98 37.84ZM663.98 45.04L666.815 44.0587L666.811 44.0477L666.807 44.0368L663.98 45.04ZM670.22 64.4L673.09 63.5265L673.09 63.5265L670.22 64.4ZM676.94 87.28L674.054 88.099L674.057 88.1094L676.94 87.28ZM683.5 110.48L680.609 111.283L680.612 111.293L683.5 110.48ZM689.1 130.64L691.378 132.592L692.413 131.385L691.994 129.851L689.1 130.64ZM683.34 134.16L682.391 131.314L682.339 131.332L682.287 131.351L683.34 134.16ZM667.66 134.96L666.932 137.87L666.953 137.875L666.973 137.88L667.66 134.96ZM663.34 133.04L661.466 135.383L661.52 135.426L661.575 135.466L663.34 133.04ZM660.62 129.68L657.896 130.937L657.935 131.021L657.979 131.102L660.62 129.68ZM658.86 124.88L655.957 125.637L655.969 125.682L655.982 125.726L658.86 124.88ZM655.98 113.84L658.883 113.083L658.298 110.84H655.98V113.84ZM627.02 113.84V110.84H624.715L624.121 113.067L627.02 113.84ZM624.46 123.76L621.55 123.032L621.55 123.032L624.46 123.76ZM621.9 133.68L622.909 136.505L624.393 135.975L624.799 134.453L621.9 133.68ZM617.1 134.96L616.547 132.011L616.436 132.032L616.327 132.061L617.1 134.96ZM599.02 132.88L597.22 135.28L597.276 135.322L597.333 135.361L599.02 132.88ZM595.82 120.56L592.935 119.736L592.935 119.736L595.82 120.56ZM597.26 115.28L600.161 116.043L600.164 116.033L597.26 115.28ZM600.3 104.56L597.447 103.633L597.436 103.665L597.427 103.698L600.3 104.56ZM604.78 90.8L607.632 91.7301L607.635 91.7211L607.638 91.7121L604.78 90.8ZM609.9 75.44L607.066 74.4567L607.066 74.4567L609.9 75.44ZM615.02 60.72L617.853 61.7081L617.856 61.6981L617.86 61.688L615.02 60.72ZM619.34 48.24L616.538 47.1686L616.524 47.2049L616.511 47.2415L619.34 48.24ZM641.74 60.56V57.56H639.578L638.894 59.6113L641.74 60.56ZM636.62 75.6L633.785 74.6187L633.779 74.635L633.774 74.6513L636.62 75.6ZM631.66 92.24L628.759 91.4738L627.765 95.24H631.66V92.24ZM651.5 92.24V95.24H655.377L654.404 91.4871L651.5 92.24ZM646.86 75.44L643.963 76.2199L643.972 76.2533L643.982 76.2865L646.86 75.44ZM642.7 60.56L645.579 59.7173L644.948 57.56H642.7V60.56ZM624.061 42.5058C625.523 41.6457 627.933 40.7157 631.468 39.7801L629.932 33.9799C626.213 34.9643 623.183 36.061 621.019 37.3342L624.061 42.5058ZM631.447 39.7855C634.944 38.8862 638.427 38.44 641.9 38.44V32.44C637.907 32.44 633.922 32.9538 629.953 33.9745L631.447 39.7855ZM641.9 38.44C646.938 38.44 651.245 39.1961 654.879 40.6305L657.082 35.0495C652.609 33.2839 647.529 32.44 641.9 32.44V38.44ZM654.966 40.6636C658.519 41.9389 660.356 43.7985 661.153 46.0432L666.807 44.0368C665.257 39.6681 661.761 36.7278 656.994 35.0164L654.966 40.6636ZM661.145 46.0213C663.05 51.5233 665.118 57.9393 667.35 65.2735L673.09 63.5265C670.842 56.1407 668.75 49.65 666.815 44.0587L661.145 46.0213ZM667.35 65.2735C669.584 72.6142 671.819 80.2227 674.054 88.099L679.826 86.461C677.581 78.5506 675.336 70.9058 673.09 63.5265L667.35 65.2735ZM674.057 88.1094C676.294 95.8874 678.479 103.612 680.609 111.283L686.391 109.677C684.255 101.988 682.066 94.2459 679.823 86.4506L674.057 88.1094ZM680.612 111.293C682.744 118.861 684.608 125.573 686.206 131.429L691.994 129.851C690.392 123.974 688.523 117.246 686.388 109.667L680.612 111.293ZM686.822 128.688C686.004 129.642 684.62 130.571 682.391 131.314L684.289 137.006C687.18 136.042 689.636 134.625 691.378 132.592L686.822 128.688ZM682.287 131.351C680.145 132.154 677.479 132.6 674.22 132.6V138.6C678.001 138.6 681.415 138.086 684.393 136.969L682.287 131.351ZM674.22 132.6C671.812 132.6 669.869 132.398 668.347 132.04L666.973 137.88C669.077 138.375 671.508 138.6 674.22 138.6V132.6ZM668.388 132.05C666.977 131.697 665.908 131.198 665.105 130.614L661.575 135.466C663.119 136.589 664.93 137.37 666.932 137.87L668.388 132.05ZM665.214 130.697C664.507 130.132 663.846 129.343 663.261 128.258L657.979 131.102C658.888 132.79 660.04 134.242 661.466 135.383L665.214 130.697ZM663.344 128.423C662.778 127.196 662.239 125.738 661.738 124.034L655.982 125.726C656.547 127.649 657.182 129.391 657.896 130.937L663.344 128.423ZM661.763 124.123L658.883 113.083L653.077 114.597L655.957 125.637L661.763 124.123ZM655.98 110.84H627.02V116.84H655.98V110.84ZM624.121 113.067C623.264 116.283 622.406 119.605 621.55 123.032L627.37 124.488C628.22 121.089 629.07 117.797 629.919 114.613L624.121 113.067ZM621.55 123.032C620.7 126.431 619.85 129.723 619.001 132.907L624.799 134.453C625.656 131.237 626.514 127.915 627.37 124.488L621.55 123.032ZM620.891 130.855C619.559 131.33 618.113 131.718 616.547 132.011L617.653 137.909C619.5 137.562 621.254 137.096 622.909 136.505L620.891 130.855ZM616.327 132.061C615.06 132.399 613.365 132.6 611.18 132.6V138.6C613.689 138.6 615.94 138.374 617.873 137.859L616.327 132.061ZM611.18 132.6C605.971 132.6 602.639 131.713 600.707 130.399L597.333 135.361C600.734 137.673 605.509 138.6 611.18 138.6V132.6ZM600.82 130.48C599.045 129.148 598.18 127.439 598.18 125.04H592.18C592.18 129.254 593.875 132.772 597.22 135.28L600.82 130.48ZM598.18 125.04C598.18 123.836 598.351 122.62 598.705 121.384L592.935 119.736C592.435 121.486 592.18 123.257 592.18 125.04H598.18ZM598.705 121.384C599.139 119.865 599.624 118.084 600.161 116.043L594.359 114.517C593.829 116.529 593.355 118.268 592.935 119.736L598.705 121.384ZM600.164 116.033C600.898 113.203 601.9 109.668 603.173 105.422L597.427 103.698C596.14 107.985 595.116 111.597 594.356 114.527L600.164 116.033ZM603.153 105.487C604.539 101.222 606.032 96.6359 607.632 91.7301L601.928 89.8699C600.328 94.7774 598.834 99.365 597.447 103.633L603.153 105.487ZM607.638 91.7121C609.23 86.7238 610.929 81.6275 612.734 76.4233L607.066 74.4567C605.245 79.7058 603.53 84.8495 601.922 89.8879L607.638 91.7121ZM612.734 76.4233C614.547 71.198 616.253 66.293 617.853 61.7081L612.187 59.7319C610.587 64.3203 608.88 69.2286 607.066 74.4567L612.734 76.4233ZM617.86 61.688C619.457 57.0021 620.893 52.8526 622.169 49.2385L616.511 47.2415C615.227 50.8807 613.783 55.0512 612.18 59.752L617.86 61.688ZM622.142 49.3114C623.528 45.6863 624.592 42.9193 625.336 41.0073L619.744 38.8327C618.994 40.7607 617.925 43.5404 616.538 47.1686L622.142 49.3114ZM638.894 59.6113C637.405 64.0782 635.702 69.0804 633.785 74.6187L639.455 76.5813C641.378 71.0263 643.088 66.0018 644.586 61.5087L638.894 59.6113ZM633.774 74.6513C631.94 80.1527 630.269 85.7603 628.759 91.4738L634.561 93.0062C636.038 87.413 637.673 81.9273 639.466 76.5487L633.774 74.6513ZM631.66 95.24H651.5V89.24H631.66V95.24ZM654.404 91.4871C652.903 85.6973 651.348 80.066 649.738 74.5935L643.982 76.2865C645.572 81.694 647.11 87.2627 648.596 92.9929L654.404 91.4871ZM649.757 74.6601C648.259 69.0975 646.867 64.116 645.579 59.7173L639.821 61.4027C641.093 65.7506 642.474 70.6891 643.963 76.2199L649.757 74.6601ZM642.7 57.56H641.74V63.56H642.7V57.56ZM730.053 102.64V99.64H727.053V102.64H730.053ZM730.053 133.36L730.842 136.254L733.053 135.651V133.36H730.053ZM724.453 134.32L724.08 131.343L724.072 131.344L724.064 131.345L724.453 134.32ZM710.533 134.16L711.183 131.231L711.119 131.217L711.054 131.206L710.533 134.16ZM705.893 132.24L703.993 134.562L704.042 134.602L704.093 134.64L705.893 132.24ZM703.173 128.24L700.364 129.293L700.364 129.293L703.173 128.24ZM703.973 41.04L706.094 43.1613L706.094 43.1613L703.973 41.04ZM709.093 38L710.084 40.8316L710.091 40.829L709.093 38ZM721.733 35.28L722.064 38.2616L722.096 38.258L722.129 38.2537L721.733 35.28ZM770.373 43.6L768.458 45.9101L768.458 45.9101L770.373 43.6ZM776.453 85.68L778.879 87.4445L778.879 87.4445L776.453 85.68ZM764.293 96.56L762.856 93.9263L759.843 95.57L761.875 98.3362L764.293 96.56ZM775.653 111.28L777.979 109.386L777.979 109.386L775.653 111.28ZM784.453 123.76L787.337 124.584L787.684 123.369L787.057 122.272L784.453 123.76ZM778.533 132.4L780.24 134.867L780.25 134.86L780.259 134.853L778.533 132.4ZM763.013 134.48L763.907 131.617L763.013 134.48ZM758.533 132.24L760.333 129.84L758.533 132.24ZM755.013 128.72L752.635 130.549L752.635 130.549L755.013 128.72ZM751.973 124.24L754.545 122.697L754.532 122.676L754.52 122.655L751.973 124.24ZM738.533 102.64L741.08 101.055L740.199 99.64H738.533V102.64ZM749.733 78.32L751.693 80.5905L751.722 80.5655L751.751 80.5398L749.733 78.32ZM749.253 59.92L747.332 62.2247L747.384 62.2678L747.437 62.3085L749.253 59.92ZM729.893 57.36L729.356 54.4084L726.893 54.8563V57.36H729.893ZM729.893 81.36H726.893V84.36H729.893V81.36ZM727.053 102.64V133.36H733.053V102.64H727.053ZM729.263 130.466C728.308 130.726 726.619 131.026 724.08 131.343L724.825 137.297C727.406 136.974 729.451 136.634 730.842 136.254L729.263 130.466ZM724.064 131.345C721.739 131.649 719.415 131.8 717.093 131.8V137.8C719.677 137.8 722.26 137.631 724.841 137.295L724.064 131.345ZM717.093 131.8C714.807 131.8 712.845 131.601 711.183 131.231L709.882 137.089C712.06 137.573 714.472 137.8 717.093 137.8V131.8ZM711.054 131.206C709.634 130.955 708.543 130.478 707.693 129.84L704.093 134.64C705.802 135.922 707.804 136.725 710.011 137.114L711.054 131.206ZM707.792 129.918C707.104 129.355 706.473 128.498 705.981 127.187L700.364 129.293C701.152 131.395 702.334 133.205 703.993 134.562L707.792 129.918ZM705.981 127.187C705.516 125.945 705.213 124.102 705.213 121.52H699.213C699.213 124.485 699.549 127.122 700.364 129.293L705.981 127.187ZM705.213 121.52V46.16H699.213V121.52H705.213ZM705.213 46.16C705.213 44.4293 705.658 43.5976 706.094 43.1613L701.851 38.9187C699.941 40.8291 699.213 43.4107 699.213 46.16H705.213ZM706.094 43.1613C706.986 42.2691 708.272 41.4655 710.084 40.8316L708.101 35.1684C705.646 36.0279 703.519 37.2509 701.851 38.9187L706.094 43.1613ZM710.091 40.829C713.455 39.6416 717.436 38.7758 722.064 38.2616L721.401 32.2983C716.429 32.8508 711.983 33.7984 708.094 35.171L710.091 40.829ZM722.129 38.2537C726.783 37.6332 731.769 37.32 737.093 37.32V31.32C731.536 31.32 726.282 31.6468 721.336 32.3063L722.129 38.2537ZM737.093 37.32C751.46 37.32 761.747 40.3493 768.458 45.9101L772.287 41.2899C764.064 34.4773 752.165 31.32 737.093 31.32V37.32ZM768.458 45.9101C775.171 51.4715 778.573 58.9629 778.573 68.72H784.573C784.573 57.3571 780.508 48.1018 772.287 41.2899L768.458 45.9101ZM778.573 68.72C778.573 74.7914 777.016 79.8047 774.026 83.9155L778.879 87.4445C782.716 82.1686 784.573 75.8752 784.573 68.72H778.573ZM774.026 83.9155C770.852 88.2806 767.127 91.5969 762.856 93.9263L765.729 99.1937C770.845 96.4031 775.227 92.4661 778.879 87.4445L774.026 83.9155ZM761.875 98.3362C765.741 103.599 769.558 108.545 773.326 113.174L777.979 109.386C774.28 104.841 770.524 99.9743 766.71 94.7838L761.875 98.3362ZM773.326 113.174C776.991 117.677 779.82 121.699 781.848 125.248L787.057 122.272C784.819 118.354 781.781 114.057 777.979 109.386L773.326 113.174ZM781.568 122.936C780.669 126.082 779.067 128.356 776.806 129.947L780.259 134.853C783.758 132.391 786.103 128.905 787.337 124.584L781.568 122.936ZM776.825 129.933C774.576 131.49 772.03 132.28 769.093 132.28V138.28C773.195 138.28 776.942 137.15 780.24 134.867L776.825 129.933ZM769.093 132.28C766.96 132.28 765.25 132.036 763.907 131.617L762.118 137.343C764.188 137.99 766.531 138.28 769.093 138.28V132.28ZM763.907 131.617C762.489 131.173 761.309 130.573 760.333 129.84L756.733 134.64C758.316 135.827 760.123 136.72 762.118 137.343L763.907 131.617ZM760.333 129.84C759.289 129.058 758.307 128.082 757.39 126.891L752.635 130.549C753.852 132.131 755.216 133.502 756.733 134.64L760.333 129.84ZM757.39 126.891C756.398 125.601 755.45 124.204 754.545 122.697L749.4 125.783C750.415 127.476 751.493 129.065 752.635 130.549L757.39 126.891ZM754.52 122.655L741.08 101.055L735.985 104.225L749.425 125.825L754.52 122.655ZM738.533 99.64H730.053V105.64H738.533V99.64ZM740.133 84.36C744.681 84.36 748.653 83.2166 751.693 80.5905L747.772 76.0495C746.119 77.4767 743.691 78.36 740.133 78.36V84.36ZM751.751 80.5398C754.886 77.6889 756.253 73.6883 756.253 69.04H750.253C750.253 72.4983 749.272 74.6844 747.714 76.1002L751.751 80.5398ZM756.253 69.04C756.253 64.2695 754.64 60.2467 751.068 57.5315L747.437 62.3085C749.198 63.6466 750.253 65.7038 750.253 69.04H756.253ZM751.173 57.6153C747.809 54.8118 742.841 53.72 736.933 53.72V59.72C742.331 59.72 745.576 60.7615 747.332 62.2247L751.173 57.6153ZM736.933 53.72C735.283 53.72 733.879 53.7742 732.761 53.8983L733.424 59.8616C734.226 59.7725 735.382 59.72 736.933 59.72V53.72ZM732.761 53.8983C731.719 54.0142 730.582 54.1854 729.356 54.4084L730.429 60.3116C731.549 60.1079 732.546 59.9591 733.424 59.8616L732.761 53.8983ZM726.893 57.36V81.36H732.893V57.36H726.893ZM729.893 84.36H740.133V78.36H729.893V84.36ZM827.713 133.36L828.502 136.254L830.713 135.651V133.36H827.713ZM822.113 134.32L821.74 131.343L821.732 131.344L821.724 131.345L822.113 134.32ZM808.193 134.16L808.843 131.231L808.779 131.217L808.714 131.206L808.193 134.16ZM803.553 132.24L801.752 134.64L801.753 134.64L803.553 132.24ZM800.673 128.24L797.864 129.293L797.864 129.293L800.673 128.24ZM799.713 37.04L799.176 34.0884L796.713 34.5363V37.04H799.713ZM805.313 36.24L805.685 39.2168L805.745 39.2092L805.806 39.1992L805.313 36.24ZM819.073 36.24L818.385 39.1603L818.482 39.1829L818.579 39.1992L819.073 36.24ZM823.873 38.16L822.072 40.56L822.073 40.56L823.873 38.16ZM826.753 42.16L823.944 43.2134L823.944 43.2134L826.753 42.16ZM826.923 130.466C825.968 130.726 824.279 131.026 821.74 131.343L822.485 137.297C825.066 136.974 827.111 136.634 828.502 136.254L826.923 130.466ZM821.724 131.345C819.399 131.649 817.075 131.8 814.753 131.8V137.8C817.337 137.8 819.92 137.631 822.501 137.295L821.724 131.345ZM814.753 131.8C812.467 131.8 810.505 131.601 808.843 131.231L807.542 137.089C809.72 137.573 812.132 137.8 814.753 137.8V131.8ZM808.714 131.206C807.294 130.955 806.203 130.478 805.353 129.84L801.753 134.64C803.462 135.922 805.464 136.725 807.671 137.114L808.714 131.206ZM805.353 129.84C804.592 129.269 803.949 128.434 803.481 127.187L797.864 129.293C798.676 131.459 799.953 133.291 801.752 134.64L805.353 129.84ZM803.481 127.187C803.016 125.945 802.713 124.102 802.713 121.52H796.713C796.713 124.485 797.049 127.122 797.864 129.293L803.481 127.187ZM802.713 121.52V37.04H796.713V121.52H802.713ZM800.249 39.9916C801.335 39.7942 803.132 39.5359 805.685 39.2168L804.94 33.2632C802.373 33.584 800.437 33.8592 799.176 34.0884L800.249 39.9916ZM805.806 39.1992C808.22 38.7969 810.507 38.6 812.673 38.6V32.6C810.144 32.6 807.525 32.8298 804.819 33.2808L805.806 39.1992ZM812.673 38.6C814.963 38.6 816.855 38.8002 818.385 39.1603L819.76 33.3197C817.663 32.8265 815.289 32.6 812.673 32.6V38.6ZM818.579 39.1992C820.127 39.4571 821.252 39.9443 822.072 40.56L825.673 35.76C823.933 34.4556 821.858 33.6629 819.566 33.2808L818.579 39.1992ZM822.073 40.56C822.833 41.1306 823.476 41.9661 823.944 43.2134L829.561 41.1066C828.749 38.9406 827.472 37.1094 825.673 35.76L822.073 40.56ZM823.944 43.2134C824.409 44.4553 824.713 46.2983 824.713 48.88H830.713C830.713 45.915 830.376 43.278 829.561 41.1066L823.944 43.2134ZM824.713 48.88V133.36H830.713V48.88H824.713ZM936.303 130.64L938.424 132.761L939.303 131.883V130.64H936.303ZM929.743 134L928.99 131.096L928.925 131.113L928.86 131.133L929.743 134ZM908.463 133.52L909.411 130.674L909.411 130.674L908.463 133.52ZM899.823 125.04L897.129 126.36L897.134 126.371L897.139 126.382L899.823 125.04ZM883.983 92.72L881.282 94.0267L881.285 94.0335L881.289 94.0403L883.983 92.72ZM879.663 83.44L876.905 84.6218L876.913 84.6401L876.921 84.6584L879.663 83.44ZM875.503 73.2L878.299 72.1127L877.415 69.8399L875.009 70.2408L875.503 73.2ZM874.543 73.36L874.049 70.4008L871.348 70.851L871.551 73.5816L874.543 73.36ZM875.183 90.96H872.183V90.9868L872.183 91.0136L875.183 90.96ZM875.343 133.36L876.132 136.254L878.343 135.651V133.36H875.343ZM869.903 134.32L869.514 131.345L869.506 131.346L869.497 131.348L869.903 134.32ZM856.623 134.32L857.144 131.366L856.623 134.32ZM852.143 132.4L854.042 130.078L852.143 132.4ZM849.423 128.56L846.614 129.613L846.625 129.644L846.637 129.674L849.423 128.56ZM848.463 42L846.005 40.2796L845.463 41.0543V42H848.463ZM855.343 37.2L854.365 34.3639L854.365 34.3639L855.343 37.2ZM876.463 37.52L875.437 40.3394L875.488 40.3578L875.539 40.3743L876.463 37.52ZM885.102 45.84L882.406 47.1553L882.41 47.1631L882.414 47.171L885.102 45.84ZM901.103 78.16L903.803 76.8533L903.797 76.8411L903.791 76.829L901.103 78.16ZM905.423 87.6L902.665 88.7818L902.673 88.8001L902.681 88.8184L905.423 87.6ZM909.583 97.68L906.786 98.7673L907.7 101.116L910.171 100.622L909.583 97.68ZM910.383 97.52L910.971 100.462L913.57 99.9419L913.374 97.2984L910.383 97.52ZM909.583 80.24L912.582 80.1845L912.582 80.1844L909.583 80.24ZM909.423 37.04L908.633 34.1457L906.423 34.7486V37.04H909.423ZM914.703 36.08L914.314 33.1052L914.306 33.1063L914.297 33.1075L914.703 36.08ZM932.623 38.16L930.909 40.6227L930.946 40.6483L930.984 40.6728L932.623 38.16ZM934.181 128.519C933.19 129.51 931.553 130.431 928.99 131.096L930.495 136.904C933.692 136.075 936.428 134.757 938.424 132.761L934.181 128.519ZM928.86 131.133C926.455 131.873 923.41 132.28 919.663 132.28V138.28C923.808 138.28 927.484 137.834 930.625 136.867L928.86 131.133ZM919.663 132.28C916.018 132.28 912.606 131.739 909.411 130.674L907.514 136.366C911.359 137.648 915.414 138.28 919.663 138.28V132.28ZM909.411 130.674C906.88 129.83 904.518 127.723 902.506 123.698L897.139 126.382C899.607 131.317 903.005 134.863 907.514 136.366L909.411 130.674ZM902.516 123.72L886.676 91.3997L881.289 94.0403L897.129 126.36L902.516 123.72ZM886.683 91.4133C885.095 88.1312 883.669 85.0676 882.404 82.2216L876.921 84.6584C878.216 87.5724 879.67 90.6955 881.282 94.0267L886.683 91.4133ZM882.42 82.2582C881.156 79.3098 879.783 75.9289 878.299 72.1127L872.706 74.2873C874.209 78.1511 875.609 81.5969 876.905 84.6218L882.42 82.2582ZM875.009 70.2408L874.049 70.4008L875.036 76.3192L875.996 76.1592L875.009 70.2408ZM871.551 73.5816C871.972 79.2654 872.183 85.0581 872.183 90.96H878.183C878.183 84.9152 877.967 78.9746 877.534 73.1384L871.551 73.5816ZM872.183 91.0136C872.289 96.9697 872.343 102.818 872.343 108.56H878.343C878.343 102.781 878.289 96.897 878.182 90.9064L872.183 91.0136ZM872.343 108.56V133.36H878.343V108.56H872.343ZM874.553 130.466C873.586 130.729 871.941 131.029 869.514 131.345L870.291 137.295C872.771 136.971 874.752 136.631 876.132 136.254L874.553 130.466ZM869.497 131.348C867.284 131.649 865.072 131.8 862.863 131.8V137.8C865.346 137.8 867.828 137.631 870.308 137.292L869.497 131.348ZM862.863 131.8C860.646 131.8 858.746 131.648 857.144 131.366L856.101 137.274C858.126 137.632 860.386 137.8 862.863 137.8V131.8ZM857.144 131.366C855.729 131.116 854.741 130.65 854.042 130.078L850.243 134.722C851.891 136.07 853.89 136.884 856.101 137.274L857.144 131.366ZM854.042 130.078C853.313 129.481 852.686 128.64 852.208 127.446L846.637 129.674C847.439 131.68 848.626 133.399 850.243 134.722L854.042 130.078ZM852.231 127.507C851.762 126.254 851.463 124.458 851.463 122H845.463C845.463 124.875 845.803 127.452 846.614 129.613L852.231 127.507ZM851.463 122V42H845.463V122H851.463ZM850.92 43.7204C851.966 42.2257 853.671 40.9498 856.32 40.0361L854.365 34.3639C850.828 35.5835 847.945 37.5076 846.005 40.2796L850.92 43.7204ZM856.32 40.0361C859.076 39.0859 862.05 38.6 865.263 38.6V32.6C861.435 32.6 857.796 33.1808 854.365 34.3639L856.32 40.0361ZM865.263 38.6C868.878 38.6 872.263 39.1852 875.437 40.3394L877.488 34.7006C873.622 33.2948 869.54 32.6 865.263 32.6V38.6ZM875.539 40.3743C878.19 41.2319 880.526 43.3007 882.406 47.1553L887.799 44.5247C885.412 39.6326 881.988 36.1547 877.386 34.6657L875.539 40.3743ZM882.414 47.171L898.414 79.491L903.791 76.829L887.791 44.509L882.414 47.171ZM898.402 79.4667C899.985 82.7373 901.405 85.8422 902.665 88.7818L908.18 86.4182C906.88 83.3845 905.42 80.196 903.803 76.8533L898.402 79.4667ZM902.681 88.8184C903.937 91.6444 905.305 94.9589 906.786 98.7673L912.379 96.5927C910.873 92.7211 909.468 89.3156 908.164 86.3816L902.681 88.8184ZM910.171 100.622L910.971 100.462L909.794 94.5783L908.994 94.7383L910.171 100.622ZM913.374 97.2984C912.952 91.5935 912.688 85.8889 912.582 80.1845L906.583 80.2955C906.691 86.1111 906.96 91.9265 907.391 97.7416L913.374 97.2984ZM912.582 80.1844C912.476 74.443 912.423 68.7015 912.423 62.96H906.423C906.423 68.7385 906.476 74.517 906.583 80.2955L912.582 80.1844ZM912.423 62.96V37.04H906.423V62.96H912.423ZM910.212 39.9343C911.191 39.6673 912.794 39.368 915.108 39.0525L914.297 33.1075C911.918 33.4319 910.001 33.7727 908.633 34.1457L910.212 39.9343ZM915.091 39.0548C917.422 38.7507 919.692 38.6 921.903 38.6V32.6C919.419 32.6 916.89 32.7693 914.314 33.1052L915.091 39.0548ZM921.903 38.6C926.307 38.6 929.171 39.4136 930.909 40.6227L934.336 35.6973C931.167 33.493 926.885 32.6 921.903 32.6V38.6ZM930.984 40.6728C932.094 41.3966 933.303 43.4047 933.303 48.4H939.303C939.303 42.942 938.058 38.1234 934.261 35.6472L930.984 40.6728ZM933.303 48.4V130.64H939.303V48.4H933.303Z" fill="#794514"/>
</svg>
